<svg width="957" height="165" viewBox="0 0 957 165" fill="none" xmlns="http://www.w3.org/2000/svg">
<g clip-path="url(#clip0_350_5224)">
<rect width="957" height="165" fill="white"/>
<path d="M165.625 81.8125V99H95.625V81.8125H165.625Z" fill="#A5C496"/>
<path d="M836.632 122.142V38.6188H850.806V122.142H836.632ZM801.958 87.4669V73.2934H885.48V87.4669H801.958Z" fill="#A5C496"/>
<path d="M424.818 125.727V38.4545H430.409V125.727H424.818ZM443.636 64.6364C443.227 61.1818 441.568 58.5 438.659 56.5909C435.75 54.6818 432.182 53.7273 427.955 53.7273C424.864 53.7273 422.159 54.2273 419.841 55.2273C417.545 56.2273 415.75 57.6023 414.455 59.3523C413.182 61.1023 412.545 63.0909 412.545 65.3182C412.545 67.1818 412.989 68.7841 413.875 70.125C414.784 71.4432 415.943 72.5455 417.352 73.4318C418.761 74.2955 420.239 75.0114 421.784 75.5795C423.33 76.125 424.75 76.5682 426.045 76.9091L433.136 78.8182C434.955 79.2955 436.977 79.9545 439.205 80.7955C441.455 81.6364 443.602 82.7841 445.648 84.2386C447.716 85.6705 449.42 87.5114 450.761 89.7614C452.102 92.0114 452.773 94.7727 452.773 98.0455C452.773 101.818 451.784 105.227 449.807 108.273C447.852 111.318 444.989 113.739 441.216 115.534C437.466 117.33 432.909 118.227 427.545 118.227C422.545 118.227 418.216 117.42 414.557 115.807C410.92 114.193 408.057 111.943 405.966 109.057C403.898 106.17 402.727 102.818 402.455 99H411.182C411.409 101.636 412.295 103.818 413.841 105.545C415.409 107.25 417.386 108.523 419.773 109.364C422.182 110.182 424.773 110.591 427.545 110.591C430.773 110.591 433.67 110.068 436.239 109.023C438.807 107.955 440.841 106.477 442.341 104.591C443.841 102.682 444.591 100.455 444.591 97.9091C444.591 95.5909 443.943 93.7045 442.648 92.25C441.352 90.7955 439.648 89.6136 437.534 88.7045C435.42 87.7955 433.136 87 430.682 86.3182L422.091 83.8636C416.636 82.2955 412.318 80.0568 409.136 77.1477C405.955 74.2386 404.364 70.4318 404.364 65.7273C404.364 61.8182 405.42 58.4091 407.534 55.5C409.67 52.5682 412.534 50.2955 416.125 48.6818C419.739 47.0455 423.773 46.2273 428.227 46.2273C432.727 46.2273 436.727 47.0341 440.227 48.6477C443.727 50.2386 446.5 52.4205 448.545 55.1932C450.614 57.9659 451.705 61.1136 451.818 64.6364H443.636ZM489.991 47.1818V117H481.537V56.0455H481.128L464.082 67.3636V58.7727L481.537 47.1818H489.991ZM532.844 117.955C527.707 117.955 523.332 116.557 519.719 113.761C516.105 110.943 513.344 106.864 511.435 101.523C509.526 96.1591 508.571 89.6818 508.571 82.0909C508.571 74.5455 509.526 68.1023 511.435 62.7614C513.366 57.3977 516.139 53.3068 519.753 50.4886C523.389 47.6477 527.753 46.2273 532.844 46.2273C537.935 46.2273 542.287 47.6477 545.901 50.4886C549.537 53.3068 552.31 57.3977 554.219 62.7614C556.151 68.1023 557.116 74.5455 557.116 82.0909C557.116 89.6818 556.162 96.1591 554.253 101.523C552.344 106.864 549.582 110.943 545.969 113.761C542.355 116.557 537.98 117.955 532.844 117.955ZM532.844 110.455C537.935 110.455 541.889 108 544.707 103.091C547.526 98.1818 548.935 91.1818 548.935 82.0909C548.935 76.0455 548.287 70.8977 546.991 66.6477C545.719 62.3977 543.878 59.1591 541.469 56.9318C539.082 54.7045 536.207 53.5909 532.844 53.5909C527.798 53.5909 523.855 56.0795 521.014 61.0568C518.173 66.0114 516.753 73.0227 516.753 82.0909C516.753 88.1364 517.389 93.2727 518.662 97.5C519.935 101.727 521.764 104.943 524.151 107.148C526.56 109.352 529.457 110.455 532.844 110.455ZM592.844 117.955C587.707 117.955 583.332 116.557 579.719 113.761C576.105 110.943 573.344 106.864 571.435 101.523C569.526 96.1591 568.571 89.6818 568.571 82.0909C568.571 74.5455 569.526 68.1023 571.435 62.7614C573.366 57.3977 576.139 53.3068 579.753 50.4886C583.389 47.6477 587.753 46.2273 592.844 46.2273C597.935 46.2273 602.287 47.6477 605.901 50.4886C609.537 53.3068 612.31 57.3977 614.219 62.7614C616.151 68.1023 617.116 74.5455 617.116 82.0909C617.116 89.6818 616.162 96.1591 614.253 101.523C612.344 106.864 609.582 110.943 605.969 113.761C602.355 116.557 597.98 117.955 592.844 117.955ZM592.844 110.455C597.935 110.455 601.889 108 604.707 103.091C607.526 98.1818 608.935 91.1818 608.935 82.0909C608.935 76.0455 608.287 70.8977 606.991 66.6477C605.719 62.3977 603.878 59.1591 601.469 56.9318C599.082 54.7045 596.207 53.5909 592.844 53.5909C587.798 53.5909 583.855 56.0795 581.014 61.0568C578.173 66.0114 576.753 73.0227 576.753 82.0909C576.753 88.1364 577.389 93.2727 578.662 97.5C579.935 101.727 581.764 104.943 584.151 107.148C586.56 109.352 589.457 110.455 592.844 110.455Z" fill="#A5C496"/>
</g>
<rect x="1.5" y="1.5" width="954" height="162" stroke="black" stroke-width="3"/>
<defs>
<clipPath id="clip0_350_5224">
<rect width="957" height="165" fill="white"/>
</clipPath>
</defs>
</svg>
