<svg width="1654" height="183" viewBox="0 0 1654 183" fill="none" xmlns="http://www.w3.org/2000/svg">
<g clip-path="url(#clip0_352_5234)">
<rect width="1654" height="183" fill="white"/>
<rect x="0.680328" y="0.680328" width="118.377" height="247.639" stroke="black" stroke-width="1.36066"/>
<rect x="120.68" y="0.680328" width="118.377" height="247.639" stroke="black" stroke-width="1.36066"/>
<rect x="359.893" y="0.680328" width="118.377" height="247.639" stroke="black" stroke-width="1.36066"/>
<g clip-path="url(#clip1_352_5234)">
<rect x="1176.34" y="0.680328" width="118.377" height="247.639" stroke="black" stroke-width="1.36066"/>
</g>
<rect x="1176.68" y="0.680328" width="118.377" height="247.639" stroke="black" stroke-width="1.36066"/>
<rect x="1415.76" y="0.680328" width="118.377" height="247.639" stroke="black" stroke-width="1.36066"/>
<rect x="1535.5" y="0.680328" width="118.377" height="247.639" stroke="black" stroke-width="1.36066"/>
<rect x="479.68" y="0.680328" width="695.295" height="247.639" stroke="black" stroke-width="1.36066"/>
<path d="M719.851 156.875V38.1267H727.458V156.875H719.851ZM745.456 73.7511C744.899 69.0507 742.642 65.4016 738.684 62.804C734.725 60.2064 729.87 58.9076 724.118 58.9076C719.913 58.9076 716.233 59.5879 713.079 60.9486C709.955 62.3092 707.512 64.1801 705.75 66.5613C704.018 68.9424 703.152 71.6483 703.152 74.6788C703.152 77.2146 703.755 79.3947 704.961 81.2193C706.198 83.0128 707.775 84.5127 709.692 85.7187C711.61 86.8938 713.62 87.8679 715.723 88.641C717.825 89.3832 719.758 89.9862 721.521 90.4501L731.169 93.0477C733.643 93.6971 736.395 94.5939 739.426 95.7381C742.487 96.8823 745.41 98.4439 748.193 100.423C751.007 102.371 753.326 104.876 755.151 107.938C756.975 110.999 757.887 114.756 757.887 119.209C757.887 124.343 756.542 128.981 753.852 133.125C751.192 137.269 747.296 140.562 742.163 143.005C737.06 145.448 730.86 146.67 723.562 146.67C716.759 146.67 710.868 145.572 705.889 143.376C700.941 141.181 697.045 138.119 694.2 134.192C691.385 130.265 689.793 125.703 689.422 120.508H701.297C701.606 124.095 702.812 127.064 704.915 129.414C707.048 131.734 709.739 133.465 712.986 134.61C716.264 135.723 719.789 136.279 723.562 136.279C727.953 136.279 731.896 135.568 735.39 134.146C738.885 132.692 741.652 130.682 743.693 128.115C745.734 125.518 746.755 122.487 746.755 119.024C746.755 115.87 745.874 113.303 744.111 111.324C742.348 109.345 740.029 107.737 737.153 106.5C734.277 105.263 731.169 104.18 727.829 103.253L716.14 99.9128C708.718 97.7791 702.843 94.733 698.513 90.7748C694.184 86.8165 692.019 81.6367 692.019 75.2355C692.019 69.9165 693.457 65.2779 696.333 61.3197C699.24 57.3305 703.137 54.2381 708.023 52.0425C712.939 49.8159 718.428 48.7027 724.49 48.7027C730.613 48.7027 736.055 49.8005 740.817 51.9961C745.58 54.1608 749.352 57.1295 752.136 60.9022C754.95 64.6749 756.434 68.9579 756.589 73.7511H745.456ZM808.529 50.0015V145H797.026V62.0618H796.469L773.276 77.462V65.7727L797.026 50.0015H808.529ZM866.837 146.299C859.848 146.299 853.895 144.397 848.978 140.593C844.061 136.759 840.304 131.208 837.706 123.941C835.109 116.643 833.81 107.829 833.81 97.5007C833.81 87.234 835.109 78.467 837.706 71.1999C840.335 63.9018 844.107 58.3355 849.024 54.5009C853.972 50.6354 859.91 48.7027 866.837 48.7027C873.764 48.7027 879.686 50.6354 884.602 54.5009C889.55 58.3355 893.323 63.9018 895.921 71.1999C898.549 78.467 899.863 87.234 899.863 97.5007C899.863 107.829 898.565 116.643 895.967 123.941C893.369 131.208 889.612 136.759 884.695 140.593C879.778 144.397 873.825 146.299 866.837 146.299ZM866.837 136.094C873.764 136.094 879.144 132.754 882.979 126.075C886.813 119.395 888.731 109.87 888.731 97.5007C888.731 89.275 887.849 82.2707 886.087 76.4879C884.355 70.7051 881.85 66.2984 878.572 63.2679C875.325 60.2373 871.413 58.7221 866.837 58.7221C859.971 58.7221 854.606 62.1082 850.741 68.8806C846.875 75.622 844.942 85.1621 844.942 97.5007C844.942 105.727 845.808 112.715 847.54 118.467C849.272 124.219 851.761 128.595 855.008 131.594C858.286 134.594 862.229 136.094 866.837 136.094ZM948.476 146.299C941.487 146.299 935.534 144.397 930.617 140.593C925.7 136.759 921.943 131.208 919.346 123.941C916.748 116.643 915.449 107.829 915.449 97.5007C915.449 87.234 916.748 78.467 919.346 71.1999C921.974 63.9018 925.747 58.3355 930.664 54.5009C935.612 50.6354 941.549 48.7027 948.476 48.7027C955.403 48.7027 961.325 50.6354 966.242 54.5009C971.19 58.3355 974.962 63.9018 977.56 71.1999C980.188 78.467 981.503 87.234 981.503 97.5007C981.503 107.829 980.204 116.643 977.606 123.941C975.009 131.208 971.251 136.759 966.335 140.593C961.418 144.397 955.465 146.299 948.476 146.299ZM948.476 136.094C955.403 136.094 960.784 132.754 964.618 126.075C968.453 119.395 970.37 109.87 970.37 97.5007C970.37 89.275 969.489 82.2707 967.726 76.4879C965.994 70.7051 963.49 66.2984 960.212 63.2679C956.965 60.2373 953.053 58.7221 948.476 58.7221C941.611 58.7221 936.245 62.1082 932.38 68.8806C928.514 75.622 926.582 85.1621 926.582 97.5007C926.582 105.727 927.448 112.715 929.179 118.467C930.911 124.219 933.4 128.595 936.647 131.594C939.925 134.594 943.868 136.094 948.476 136.094Z" fill="#A5C496"/>
</g>
<rect x="1.5" y="1.5" width="1651" height="180" stroke="black" stroke-width="3"/>
<defs>
<clipPath id="clip0_352_5234">
<rect width="1654" height="183" fill="white"/>
</clipPath>
<clipPath id="clip1_352_5234">
<rect x="1176" width="119.738" height="249" fill="white"/>
</clipPath>
</defs>
</svg>
