<svg width="1324" height="313" viewBox="0 0 1324 313" fill="none" xmlns="http://www.w3.org/2000/svg">
<circle cx="156.5" cy="156.5" r="155" fill="white" stroke="black" stroke-width="3"/>
<g filter="url(#filter0_d_0_1)">
<circle cx="159.71" cy="158.105" r="113.162" fill="white"/>
<circle cx="159.71" cy="158.105" r="111.662" stroke="#5E5B5B" stroke-opacity="0.2" stroke-width="3"/>
</g>
<rect x="163.723" y="62.5996" width="31.6914" height="16.0513" rx="8.02564" transform="rotate(89.4407 163.723 62.5996)" fill="#A5C496"/>
<path fill-rule="evenodd" clip-rule="evenodd" d="M160.51 4.53955C159.702 4.52752 158.892 4.52148 158.081 4.52148C74.9053 4.52148 7.02757 67.989 3.21289 147.671H43.5742C46.7088 88.858 96.9152 42.1053 158.391 42.1053C159.099 42.1053 159.805 42.1115 160.51 42.1238V4.53955Z" fill="#A5C496"/>
<circle cx="661.5" cy="156.5" r="155" fill="white" stroke="black" stroke-width="3"/>
<g filter="url(#filter1_d_0_1)">
<circle cx="664.71" cy="158.105" r="113.162" fill="white"/>
<circle cx="664.71" cy="158.105" r="111.662" stroke="#5E5B5B" stroke-opacity="0.2" stroke-width="3"/>
</g>
<rect x="673.051" y="210" width="31.6914" height="16.0513" rx="8.02564" transform="rotate(89.4407 673.051 210)" fill="#A5C496"/>
<path fill-rule="evenodd" clip-rule="evenodd" d="M660.999 308.982C661.78 308.994 662.563 309 663.347 309C743.722 309 809.314 247.372 813 170H773.998C770.969 227.108 722.453 272.506 663.048 272.506C662.363 272.506 661.681 272.5 660.999 272.488V308.982Z" fill="#A5C496"/>
<circle cx="1167.5" cy="156.5" r="155" fill="white" stroke="#5E5B5B" stroke-width="3"/>
<g filter="url(#filter2_d_0_1)">
<circle cx="1170.71" cy="158.105" r="113.162" fill="white"/>
<circle cx="1170.71" cy="158.105" r="112.662" stroke="black" stroke-opacity="0.2"/>
</g>
<rect x="1237" y="154" width="31.6914" height="16.0513" rx="8.02564" fill="#A5C496"/>
<path fill-rule="evenodd" clip-rule="evenodd" d="M1320.62 162.96C1320.63 162.152 1320.64 161.343 1320.65 160.532C1321.04 77.358 1259.46 9.18683 1181.75 5.00168L1181.56 45.362C1238.91 48.7702 1284.28 99.1927 1283.98 160.667C1283.98 161.375 1283.97 162.081 1283.96 162.786L1320.62 162.96Z" fill="#A5C496"/>
<defs>
<filter id="filter0_d_0_1" x="40.1283" y="44.9434" width="239.163" height="239.163" filterUnits="userSpaceOnUse" color-interpolation-filters="sRGB">
<feFlood flood-opacity="0" result="BackgroundImageFix"/>
<feColorMatrix in="SourceAlpha" type="matrix" values="0 0 0 0 0 0 0 0 0 0 0 0 0 0 0 0 0 0 127 0" result="hardAlpha"/>
<feOffset dy="6.42051"/>
<feGaussianBlur stdDeviation="3.21026"/>
<feComposite in2="hardAlpha" operator="out"/>
<feColorMatrix type="matrix" values="0 0 0 0 0 0 0 0 0 0 0 0 0 0 0 0 0 0 0.25 0"/>
<feBlend mode="normal" in2="BackgroundImageFix" result="effect1_dropShadow_0_1"/>
<feBlend mode="normal" in="SourceGraphic" in2="effect1_dropShadow_0_1" result="shape"/>
</filter>
<filter id="filter1_d_0_1" x="545.128" y="44.9434" width="239.163" height="239.163" filterUnits="userSpaceOnUse" color-interpolation-filters="sRGB">
<feFlood flood-opacity="0" result="BackgroundImageFix"/>
<feColorMatrix in="SourceAlpha" type="matrix" values="0 0 0 0 0 0 0 0 0 0 0 0 0 0 0 0 0 0 127 0" result="hardAlpha"/>
<feOffset dy="6.42051"/>
<feGaussianBlur stdDeviation="3.21026"/>
<feComposite in2="hardAlpha" operator="out"/>
<feColorMatrix type="matrix" values="0 0 0 0 0 0 0 0 0 0 0 0 0 0 0 0 0 0 0.25 0"/>
<feBlend mode="normal" in2="BackgroundImageFix" result="effect1_dropShadow_0_1"/>
<feBlend mode="normal" in="SourceGraphic" in2="effect1_dropShadow_0_1" result="shape"/>
</filter>
<filter id="filter2_d_0_1" x="1051.13" y="44.9434" width="239.163" height="239.163" filterUnits="userSpaceOnUse" color-interpolation-filters="sRGB">
<feFlood flood-opacity="0" result="BackgroundImageFix"/>
<feColorMatrix in="SourceAlpha" type="matrix" values="0 0 0 0 0 0 0 0 0 0 0 0 0 0 0 0 0 0 127 0" result="hardAlpha"/>
<feOffset dy="6.42051"/>
<feGaussianBlur stdDeviation="3.21026"/>
<feComposite in2="hardAlpha" operator="out"/>
<feColorMatrix type="matrix" values="0 0 0 0 0 0 0 0 0 0 0 0 0 0 0 0 0 0 0.25 0"/>
<feBlend mode="normal" in2="BackgroundImageFix" result="effect1_dropShadow_0_1"/>
<feBlend mode="normal" in="SourceGraphic" in2="effect1_dropShadow_0_1" result="shape"/>
</filter>
</defs>
</svg>
