<svg width="957" height="183" viewBox="0 0 957 183" fill="none" xmlns="http://www.w3.org/2000/svg">
<rect x="1.5" y="1.5" width="954" height="180" fill="white"/>
<rect x="1.5" y="1.5" width="954" height="180" stroke="black" stroke-width="3"/>
<path d="M218 67.0732L279.095 117.796L338.234 66.9913" stroke="#A5C496" stroke-width="8"/>
<path d="M425.818 137.727V50.4545H431.409V137.727H425.818ZM444.636 76.6364C444.227 73.1818 442.568 70.5 439.659 68.5909C436.75 66.6818 433.182 65.7273 428.955 65.7273C425.864 65.7273 423.159 66.2273 420.841 67.2273C418.545 68.2273 416.75 69.6023 415.455 71.3523C414.182 73.1023 413.545 75.0909 413.545 77.3182C413.545 79.1818 413.989 80.7841 414.875 82.125C415.784 83.4432 416.943 84.5455 418.352 85.4318C419.761 86.2955 421.239 87.0114 422.784 87.5795C424.33 88.125 425.75 88.5682 427.045 88.9091L434.136 90.8182C435.955 91.2955 437.977 91.9545 440.205 92.7955C442.455 93.6364 444.602 94.7841 446.648 96.2386C448.716 97.6705 450.42 99.5114 451.761 101.761C453.102 104.011 453.773 106.773 453.773 110.045C453.773 113.818 452.784 117.227 450.807 120.273C448.852 123.318 445.989 125.739 442.216 127.534C438.466 129.33 433.909 130.227 428.545 130.227C423.545 130.227 419.216 129.42 415.557 127.807C411.92 126.193 409.057 123.943 406.966 121.057C404.898 118.17 403.727 114.818 403.455 111H412.182C412.409 113.636 413.295 115.818 414.841 117.545C416.409 119.25 418.386 120.523 420.773 121.364C423.182 122.182 425.773 122.591 428.545 122.591C431.773 122.591 434.67 122.068 437.239 121.023C439.807 119.955 441.841 118.477 443.341 116.591C444.841 114.682 445.591 112.455 445.591 109.909C445.591 107.591 444.943 105.705 443.648 104.25C442.352 102.795 440.648 101.614 438.534 100.705C436.42 99.7955 434.136 99 431.682 98.3182L423.091 95.8636C417.636 94.2955 413.318 92.0568 410.136 89.1477C406.955 86.2386 405.364 82.4318 405.364 77.7273C405.364 73.8182 406.42 70.4091 408.534 67.5C410.67 64.5682 413.534 62.2955 417.125 60.6818C420.739 59.0455 424.773 58.2273 429.227 58.2273C433.727 58.2273 437.727 59.0341 441.227 60.6477C444.727 62.2386 447.5 64.4205 449.545 67.1932C451.614 69.9659 452.705 73.1136 452.818 76.6364H444.636ZM490.991 59.1818V129H482.537V68.0455H482.128L465.082 79.3636V70.7727L482.537 59.1818H490.991ZM533.844 129.955C528.707 129.955 524.332 128.557 520.719 125.761C517.105 122.943 514.344 118.864 512.435 113.523C510.526 108.159 509.571 101.682 509.571 94.0909C509.571 86.5455 510.526 80.1023 512.435 74.7614C514.366 69.3977 517.139 65.3068 520.753 62.4886C524.389 59.6477 528.753 58.2273 533.844 58.2273C538.935 58.2273 543.287 59.6477 546.901 62.4886C550.537 65.3068 553.31 69.3977 555.219 74.7614C557.151 80.1023 558.116 86.5455 558.116 94.0909C558.116 101.682 557.162 108.159 555.253 113.523C553.344 118.864 550.582 122.943 546.969 125.761C543.355 128.557 538.98 129.955 533.844 129.955ZM533.844 122.455C538.935 122.455 542.889 120 545.707 115.091C548.526 110.182 549.935 103.182 549.935 94.0909C549.935 88.0455 549.287 82.8977 547.991 78.6477C546.719 74.3977 544.878 71.1591 542.469 68.9318C540.082 66.7045 537.207 65.5909 533.844 65.5909C528.798 65.5909 524.855 68.0795 522.014 73.0568C519.173 78.0114 517.753 85.0227 517.753 94.0909C517.753 100.136 518.389 105.273 519.662 109.5C520.935 113.727 522.764 116.943 525.151 119.148C527.56 121.352 530.457 122.455 533.844 122.455ZM593.844 129.955C588.707 129.955 584.332 128.557 580.719 125.761C577.105 122.943 574.344 118.864 572.435 113.523C570.526 108.159 569.571 101.682 569.571 94.0909C569.571 86.5455 570.526 80.1023 572.435 74.7614C574.366 69.3977 577.139 65.3068 580.753 62.4886C584.389 59.6477 588.753 58.2273 593.844 58.2273C598.935 58.2273 603.287 59.6477 606.901 62.4886C610.537 65.3068 613.31 69.3977 615.219 74.7614C617.151 80.1023 618.116 86.5455 618.116 94.0909C618.116 101.682 617.162 108.159 615.253 113.523C613.344 118.864 610.582 122.943 606.969 125.761C603.355 128.557 598.98 129.955 593.844 129.955ZM593.844 122.455C598.935 122.455 602.889 120 605.707 115.091C608.526 110.182 609.935 103.182 609.935 94.0909C609.935 88.0455 609.287 82.8977 607.991 78.6477C606.719 74.3977 604.878 71.1591 602.469 68.9318C600.082 66.7045 597.207 65.5909 593.844 65.5909C588.798 65.5909 584.855 68.0795 582.014 73.0568C579.173 78.0114 577.753 85.0227 577.753 94.0909C577.753 100.136 578.389 105.273 579.662 109.5C580.935 113.727 582.764 116.943 585.151 119.148C587.56 121.352 590.457 122.455 593.844 122.455Z" fill="#A5C496"/>
</svg>
