<svg width="1939" height="954" viewBox="0 0 1939 954" fill="none" xmlns="http://www.w3.org/2000/svg">
<g clip-path="url(#clip0_361_34)">
<rect x="58" y="63" width="390" height="844" fill="white"/>
<rect x="59" y="64" width="388" height="73" fill="white"/>
<rect x="59" y="64" width="388" height="73" stroke="black" stroke-width="2"/>
<path d="M123.557 114V90.7273H137.989V93.75H127.068V100.841H136.955V103.852H127.068V114H123.557ZM142.034 114V96.5455H145.432V114H142.034ZM143.75 93.8523C143.159 93.8523 142.652 93.6553 142.227 93.2614C141.811 92.8598 141.602 92.3826 141.602 91.8295C141.602 91.2689 141.811 90.7917 142.227 90.3977C142.652 89.9962 143.159 89.7955 143.75 89.7955C144.341 89.7955 144.845 89.9962 145.261 90.3977C145.686 90.7917 145.898 91.2689 145.898 91.8295C145.898 92.3826 145.686 92.8598 145.261 93.2614C144.845 93.6553 144.341 93.8523 143.75 93.8523ZM153.401 103.636V114H150.003V96.5455H153.264V99.3864H153.48C153.882 98.4621 154.51 97.7197 155.366 97.1591C156.23 96.5985 157.317 96.3182 158.628 96.3182C159.817 96.3182 160.859 96.5682 161.753 97.0682C162.647 97.5606 163.34 98.2955 163.832 99.2727C164.325 100.25 164.571 101.458 164.571 102.898V114H161.173V103.307C161.173 102.042 160.844 101.053 160.185 100.341C159.526 99.6212 158.62 99.2614 157.469 99.2614C156.681 99.2614 155.98 99.4318 155.366 99.7727C154.76 100.114 154.279 100.614 153.923 101.273C153.575 101.924 153.401 102.712 153.401 103.636ZM177.276 96.5455V99.2727H167.741V96.5455H177.276ZM170.298 92.3636H173.696V108.875C173.696 109.534 173.795 110.03 173.991 110.364C174.188 110.689 174.442 110.913 174.753 111.034C175.071 111.148 175.416 111.205 175.787 111.205C176.06 111.205 176.298 111.186 176.503 111.148C176.707 111.11 176.866 111.08 176.98 111.057L177.594 113.864C177.397 113.939 177.116 114.015 176.753 114.091C176.389 114.174 175.935 114.22 175.389 114.227C174.495 114.242 173.662 114.083 172.889 113.75C172.116 113.417 171.491 112.902 171.014 112.205C170.537 111.508 170.298 110.633 170.298 109.58V92.3636ZM192.091 106.761V96.5455H195.5V114H192.159V110.977H191.977C191.576 111.909 190.932 112.686 190.045 113.307C189.167 113.92 188.072 114.227 186.761 114.227C185.64 114.227 184.648 113.981 183.784 113.489C182.928 112.989 182.254 112.25 181.761 111.273C181.277 110.295 181.034 109.087 181.034 107.648V96.5455H184.432V107.239C184.432 108.428 184.761 109.375 185.42 110.08C186.08 110.784 186.936 111.136 187.989 111.136C188.625 111.136 189.258 110.977 189.886 110.659C190.523 110.341 191.049 109.86 191.466 109.216C191.89 108.572 192.098 107.754 192.091 106.761ZM200.065 114V96.5455H203.349V99.3182H203.531C203.849 98.3788 204.41 97.6402 205.213 97.1023C206.024 96.5568 206.94 96.2841 207.963 96.2841C208.175 96.2841 208.425 96.2917 208.713 96.3068C209.009 96.322 209.24 96.3409 209.406 96.3636V99.6136C209.27 99.5758 209.027 99.5341 208.679 99.4886C208.33 99.4356 207.982 99.4091 207.634 99.4091C206.83 99.4091 206.115 99.5795 205.486 99.9205C204.865 100.254 204.372 100.72 204.009 101.318C203.645 101.909 203.463 102.583 203.463 103.341V114H200.065ZM219.074 114.352C217.438 114.352 216.009 113.977 214.79 113.227C213.57 112.477 212.623 111.428 211.949 110.08C211.275 108.731 210.938 107.155 210.938 105.352C210.938 103.542 211.275 101.958 211.949 100.602C212.623 99.2462 213.57 98.1932 214.79 97.4432C216.009 96.6932 217.438 96.3182 219.074 96.3182C220.71 96.3182 222.138 96.6932 223.358 97.4432C224.578 98.1932 225.525 99.2462 226.199 100.602C226.873 101.958 227.21 103.542 227.21 105.352C227.21 107.155 226.873 108.731 226.199 110.08C225.525 111.428 224.578 112.477 223.358 113.227C222.138 113.977 220.71 114.352 219.074 114.352ZM219.085 111.5C220.146 111.5 221.025 111.22 221.722 110.659C222.419 110.098 222.934 109.352 223.267 108.42C223.608 107.489 223.778 106.462 223.778 105.341C223.778 104.227 223.608 103.205 223.267 102.273C222.934 101.333 222.419 100.58 221.722 100.011C221.025 99.4432 220.146 99.1591 219.085 99.1591C218.017 99.1591 217.131 99.4432 216.426 100.011C215.729 100.58 215.21 101.333 214.869 102.273C214.536 103.205 214.369 104.227 214.369 105.341C214.369 106.462 214.536 107.489 214.869 108.42C215.21 109.352 215.729 110.098 216.426 110.659C217.131 111.22 218.017 111.5 219.085 111.5Z" fill="black"/>
<path d="M89.7614 114V90.7273H105.648V95.2955H95.3864V100.068H104.636V104.648H95.3864V114H89.7614Z" fill="black" fill-opacity="0.63"/>
<rect x="386" y="87" width="38" height="3" fill="black"/>
<rect x="386" y="98" width="38" height="3" fill="black"/>
<rect x="386" y="109" width="38" height="3" fill="black"/>
<rect x="59" y="833" width="388" height="73" fill="white"/>
<rect x="59" y="833" width="388" height="73" stroke="black" stroke-width="2"/>
<rect width="55" height="40" transform="translate(98 847)" fill="#949494" fill-opacity="0.3"/>
<rect width="55" height="40" transform="translate(183 847)" fill="#949494" fill-opacity="0.3"/>
<rect width="55" height="40" transform="translate(268 847)" fill="#949494" fill-opacity="0.3"/>
<rect width="55" height="40" transform="translate(353 847)" fill="#949494" fill-opacity="0.3"/>
<rect x="159" y="344.183" width="176" height="304.921" fill="black" fill-opacity="0.3"/>
<rect x="121" y="216" width="252" height="34" fill="black"/>
<rect x="129" y="273" width="235" height="25" fill="#D9D9D9"/>
<g filter="url(#filter0_d_361_34)">
<rect x="129" y="711" width="235" height="25" fill="#83B277"/>
</g>
</g>
<rect x="59" y="64" width="388" height="842" stroke="black" stroke-width="2"/>
<g clip-path="url(#clip1_361_34)">
<rect x="537" y="63" width="390" height="844" fill="white"/>
<rect x="538" y="64" width="388" height="73" fill="white"/>
<rect x="538" y="64" width="388" height="73" stroke="black" stroke-width="2"/>
<path d="M602.557 114V90.7273H616.989V93.75H606.068V100.841H615.955V103.852H606.068V114H602.557ZM621.034 114V96.5455H624.432V114H621.034ZM622.75 93.8523C622.159 93.8523 621.652 93.6553 621.227 93.2614C620.811 92.8598 620.602 92.3826 620.602 91.8295C620.602 91.2689 620.811 90.7917 621.227 90.3977C621.652 89.9962 622.159 89.7955 622.75 89.7955C623.341 89.7955 623.845 89.9962 624.261 90.3977C624.686 90.7917 624.898 91.2689 624.898 91.8295C624.898 92.3826 624.686 92.8598 624.261 93.2614C623.845 93.6553 623.341 93.8523 622.75 93.8523ZM632.401 103.636V114H629.003V96.5455H632.264V99.3864H632.48C632.882 98.4621 633.51 97.7197 634.366 97.1591C635.23 96.5985 636.317 96.3182 637.628 96.3182C638.817 96.3182 639.859 96.5682 640.753 97.0682C641.647 97.5606 642.34 98.2955 642.832 99.2727C643.325 100.25 643.571 101.458 643.571 102.898V114H640.173V103.307C640.173 102.042 639.844 101.053 639.185 100.341C638.526 99.6212 637.62 99.2614 636.469 99.2614C635.681 99.2614 634.98 99.4318 634.366 99.7727C633.76 100.114 633.279 100.614 632.923 101.273C632.575 101.924 632.401 102.712 632.401 103.636ZM656.276 96.5455V99.2727H646.741V96.5455H656.276ZM649.298 92.3636H652.696V108.875C652.696 109.534 652.795 110.03 652.991 110.364C653.188 110.689 653.442 110.913 653.753 111.034C654.071 111.148 654.416 111.205 654.787 111.205C655.06 111.205 655.298 111.186 655.503 111.148C655.707 111.11 655.866 111.08 655.98 111.057L656.594 113.864C656.397 113.939 656.116 114.015 655.753 114.091C655.389 114.174 654.935 114.22 654.389 114.227C653.495 114.242 652.662 114.083 651.889 113.75C651.116 113.417 650.491 112.902 650.014 112.205C649.537 111.508 649.298 110.633 649.298 109.58V92.3636ZM671.091 106.761V96.5455H674.5V114H671.159V110.977H670.977C670.576 111.909 669.932 112.686 669.045 113.307C668.167 113.92 667.072 114.227 665.761 114.227C664.64 114.227 663.648 113.981 662.784 113.489C661.928 112.989 661.254 112.25 660.761 111.273C660.277 110.295 660.034 109.087 660.034 107.648V96.5455H663.432V107.239C663.432 108.428 663.761 109.375 664.42 110.08C665.08 110.784 665.936 111.136 666.989 111.136C667.625 111.136 668.258 110.977 668.886 110.659C669.523 110.341 670.049 109.86 670.466 109.216C670.89 108.572 671.098 107.754 671.091 106.761ZM679.065 114V96.5455H682.349V99.3182H682.531C682.849 98.3788 683.41 97.6402 684.213 97.1023C685.024 96.5568 685.94 96.2841 686.963 96.2841C687.175 96.2841 687.425 96.2917 687.713 96.3068C688.009 96.322 688.24 96.3409 688.406 96.3636V99.6136C688.27 99.5758 688.027 99.5341 687.679 99.4886C687.33 99.4356 686.982 99.4091 686.634 99.4091C685.83 99.4091 685.115 99.5795 684.486 99.9205C683.865 100.254 683.372 100.72 683.009 101.318C682.645 101.909 682.463 102.583 682.463 103.341V114H679.065ZM698.074 114.352C696.438 114.352 695.009 113.977 693.79 113.227C692.57 112.477 691.623 111.428 690.949 110.08C690.275 108.731 689.938 107.155 689.938 105.352C689.938 103.542 690.275 101.958 690.949 100.602C691.623 99.2462 692.57 98.1932 693.79 97.4432C695.009 96.6932 696.438 96.3182 698.074 96.3182C699.71 96.3182 701.138 96.6932 702.358 97.4432C703.578 98.1932 704.525 99.2462 705.199 100.602C705.873 101.958 706.21 103.542 706.21 105.352C706.21 107.155 705.873 108.731 705.199 110.08C704.525 111.428 703.578 112.477 702.358 113.227C701.138 113.977 699.71 114.352 698.074 114.352ZM698.085 111.5C699.146 111.5 700.025 111.22 700.722 110.659C701.419 110.098 701.934 109.352 702.267 108.42C702.608 107.489 702.778 106.462 702.778 105.341C702.778 104.227 702.608 103.205 702.267 102.273C701.934 101.333 701.419 100.58 700.722 100.011C700.025 99.4432 699.146 99.1591 698.085 99.1591C697.017 99.1591 696.131 99.4432 695.426 100.011C694.729 100.58 694.21 101.333 693.869 102.273C693.536 103.205 693.369 104.227 693.369 105.341C693.369 106.462 693.536 107.489 693.869 108.42C694.21 109.352 694.729 110.098 695.426 110.659C696.131 111.22 697.017 111.5 698.085 111.5Z" fill="black"/>
<path d="M568.761 114V90.7273H584.648V95.2955H574.386V100.068H583.636V104.648H574.386V114H568.761Z" fill="black" fill-opacity="0.67"/>
<rect x="865" y="87" width="38" height="3" fill="black"/>
<rect x="865" y="98" width="38" height="3" fill="black"/>
<rect x="865" y="109" width="38" height="3" fill="black"/>
<rect x="538" y="833" width="388" height="73" fill="white"/>
<rect x="538" y="833" width="388" height="73" stroke="black" stroke-width="2"/>
<rect width="55" height="40" transform="translate(577 847)" fill="#B3B3B3"/>
<rect width="55" height="40" transform="translate(662 847)" fill="#949494" fill-opacity="0.3"/>
<rect width="55" height="40" transform="translate(747 847)" fill="#949494" fill-opacity="0.3"/>
<rect width="55" height="40" transform="translate(832 847)" fill="#949494" fill-opacity="0.3"/>
<rect x="689" y="218" width="86" height="62" fill="black"/>
<rect x="608.5" y="423.5" width="256" height="50" stroke="black"/>
<rect x="608.5" y="493.5" width="256" height="50" stroke="black"/>
<rect x="608" y="711" width="235" height="25" fill="#83B277"/>
<rect x="653" y="574" width="158" height="13" fill="#D9D9D9"/>
<rect x="644" y="337" width="185" height="37" fill="#D9D9D9"/>
</g>
<rect x="538" y="64" width="388" height="842" stroke="black" stroke-width="2"/>
<g clip-path="url(#clip2_361_34)">
<rect x="1016" y="63" width="390" height="844" fill="white"/>
<rect x="1017" y="64" width="388" height="73" fill="white"/>
<rect x="1017" y="64" width="388" height="73" stroke="black" stroke-width="2"/>
<path d="M1081.56 114V90.7273H1095.99V93.75H1085.07V100.841H1094.95V103.852H1085.07V114H1081.56ZM1100.03 114V96.5455H1103.43V114H1100.03ZM1101.75 93.8523C1101.16 93.8523 1100.65 93.6553 1100.23 93.2614C1099.81 92.8598 1099.6 92.3826 1099.6 91.8295C1099.6 91.2689 1099.81 90.7917 1100.23 90.3977C1100.65 89.9962 1101.16 89.7955 1101.75 89.7955C1102.34 89.7955 1102.84 89.9962 1103.26 90.3977C1103.69 90.7917 1103.9 91.2689 1103.9 91.8295C1103.9 92.3826 1103.69 92.8598 1103.26 93.2614C1102.84 93.6553 1102.34 93.8523 1101.75 93.8523ZM1111.4 103.636V114H1108V96.5455H1111.26V99.3864H1111.48C1111.88 98.4621 1112.51 97.7197 1113.37 97.1591C1114.23 96.5985 1115.32 96.3182 1116.63 96.3182C1117.82 96.3182 1118.86 96.5682 1119.75 97.0682C1120.65 97.5606 1121.34 98.2955 1121.83 99.2727C1122.32 100.25 1122.57 101.458 1122.57 102.898V114H1119.17V103.307C1119.17 102.042 1118.84 101.053 1118.18 100.341C1117.53 99.6212 1116.62 99.2614 1115.47 99.2614C1114.68 99.2614 1113.98 99.4318 1113.37 99.7727C1112.76 100.114 1112.28 100.614 1111.92 101.273C1111.57 101.924 1111.4 102.712 1111.4 103.636ZM1135.28 96.5455V99.2727H1125.74V96.5455H1135.28ZM1128.3 92.3636H1131.7V108.875C1131.7 109.534 1131.79 110.03 1131.99 110.364C1132.19 110.689 1132.44 110.913 1132.75 111.034C1133.07 111.148 1133.42 111.205 1133.79 111.205C1134.06 111.205 1134.3 111.186 1134.5 111.148C1134.71 111.11 1134.87 111.08 1134.98 111.057L1135.59 113.864C1135.4 113.939 1135.12 114.015 1134.75 114.091C1134.39 114.174 1133.93 114.22 1133.39 114.227C1132.5 114.242 1131.66 114.083 1130.89 113.75C1130.12 113.417 1129.49 112.902 1129.01 112.205C1128.54 111.508 1128.3 110.633 1128.3 109.58V92.3636ZM1150.09 106.761V96.5455H1153.5V114H1150.16V110.977H1149.98C1149.58 111.909 1148.93 112.686 1148.05 113.307C1147.17 113.92 1146.07 114.227 1144.76 114.227C1143.64 114.227 1142.65 113.981 1141.78 113.489C1140.93 112.989 1140.25 112.25 1139.76 111.273C1139.28 110.295 1139.03 109.087 1139.03 107.648V96.5455H1142.43V107.239C1142.43 108.428 1142.76 109.375 1143.42 110.08C1144.08 110.784 1144.94 111.136 1145.99 111.136C1146.63 111.136 1147.26 110.977 1147.89 110.659C1148.52 110.341 1149.05 109.86 1149.47 109.216C1149.89 108.572 1150.1 107.754 1150.09 106.761ZM1158.07 114V96.5455H1161.35V99.3182H1161.53C1161.85 98.3788 1162.41 97.6402 1163.21 97.1023C1164.02 96.5568 1164.94 96.2841 1165.96 96.2841C1166.18 96.2841 1166.43 96.2917 1166.71 96.3068C1167.01 96.322 1167.24 96.3409 1167.41 96.3636V99.6136C1167.27 99.5758 1167.03 99.5341 1166.68 99.4886C1166.33 99.4356 1165.98 99.4091 1165.63 99.4091C1164.83 99.4091 1164.11 99.5795 1163.49 99.9205C1162.86 100.254 1162.37 100.72 1162.01 101.318C1161.64 101.909 1161.46 102.583 1161.46 103.341V114H1158.07ZM1177.07 114.352C1175.44 114.352 1174.01 113.977 1172.79 113.227C1171.57 112.477 1170.62 111.428 1169.95 110.08C1169.27 108.731 1168.94 107.155 1168.94 105.352C1168.94 103.542 1169.27 101.958 1169.95 100.602C1170.62 99.2462 1171.57 98.1932 1172.79 97.4432C1174.01 96.6932 1175.44 96.3182 1177.07 96.3182C1178.71 96.3182 1180.14 96.6932 1181.36 97.4432C1182.58 98.1932 1183.52 99.2462 1184.2 100.602C1184.87 101.958 1185.21 103.542 1185.21 105.352C1185.21 107.155 1184.87 108.731 1184.2 110.08C1183.52 111.428 1182.58 112.477 1181.36 113.227C1180.14 113.977 1178.71 114.352 1177.07 114.352ZM1177.09 111.5C1178.15 111.5 1179.02 111.22 1179.72 110.659C1180.42 110.098 1180.93 109.352 1181.27 108.42C1181.61 107.489 1181.78 106.462 1181.78 105.341C1181.78 104.227 1181.61 103.205 1181.27 102.273C1180.93 101.333 1180.42 100.58 1179.72 100.011C1179.02 99.4432 1178.15 99.1591 1177.09 99.1591C1176.02 99.1591 1175.13 99.4432 1174.43 100.011C1173.73 100.58 1173.21 101.333 1172.87 102.273C1172.54 103.205 1172.37 104.227 1172.37 105.341C1172.37 106.462 1172.54 107.489 1172.87 108.42C1173.21 109.352 1173.73 110.098 1174.43 110.659C1175.13 111.22 1176.02 111.5 1177.09 111.5Z" fill="black"/>
<path d="M1047.76 114V90.7273H1063.65V95.2955H1053.39V100.068H1062.64V104.648H1053.39V114H1047.76Z" fill="black" fill-opacity="0.67"/>
<rect x="1344" y="87" width="38" height="3" fill="black"/>
<rect x="1344" y="98" width="38" height="3" fill="black"/>
<rect x="1344" y="109" width="38" height="3" fill="black"/>
<rect x="1017" y="833" width="388" height="73" fill="white"/>
<rect x="1017" y="833" width="388" height="73" stroke="black" stroke-width="2"/>
<rect width="55" height="40" transform="translate(1056 847)" fill="#D9D9D9"/>
<rect width="55" height="40" transform="translate(1141 847)" fill="#949494" fill-opacity="0.3"/>
<rect width="55" height="40" transform="translate(1226 847)" fill="#949494" fill-opacity="0.3"/>
<rect width="55" height="40" transform="translate(1311 847)" fill="#949494" fill-opacity="0.3"/>
<rect x="1094" y="215" width="233" height="37" fill="black"/>
<rect x="1094" y="339" width="42" height="34" fill="black"/>
<rect x="1094" y="477" width="42" height="34" fill="black"/>
<rect x="1094" y="615" width="42" height="34" fill="black"/>
<rect x="1094" y="339" width="42" height="34" fill="black"/>
<rect x="1094" y="477" width="42" height="34" fill="black"/>
<rect x="1094" y="615" width="42" height="34" fill="black"/>
<rect x="1095" y="433" width="116" height="18" fill="#83B277"/>
<rect x="1095" y="571" width="116" height="18" fill="black" fill-opacity="0.46"/>
<rect x="1095" y="709" width="116" height="18" fill="black" fill-opacity="0.46"/>
<rect x="1094" y="263" width="233" height="24" fill="#D9D9D9"/>
<rect x="1094" y="390" width="233" height="34" fill="#D9D9D9" fill-opacity="0.36"/>
<rect x="1094" y="528" width="233" height="34" fill="#D9D9D9" fill-opacity="0.36"/>
<rect x="1094" y="666" width="233" height="34" fill="#D9D9D9" fill-opacity="0.36"/>
<rect x="1094" y="390" width="233" height="34" fill="#D9D9D9" fill-opacity="0.36"/>
<rect x="1094" y="528" width="233" height="34" fill="#D9D9D9" fill-opacity="0.36"/>
<rect x="1094" y="666" width="233" height="34" fill="#D9D9D9" fill-opacity="0.36"/>
<rect x="1146" y="352" width="176" height="21" fill="#D9D9D9"/>
<rect x="1146" y="490" width="176" height="21" fill="#D9D9D9"/>
<rect x="1146" y="628" width="176" height="21" fill="#D9D9D9"/>
<rect x="1146" y="352" width="176" height="21" fill="#D9D9D9"/>
<rect x="1146" y="490" width="176" height="21" fill="#D9D9D9"/>
<rect x="1146" y="628" width="176" height="21" fill="#D9D9D9"/>
</g>
<rect x="1017" y="64" width="388" height="842" stroke="black" stroke-width="2"/>
<g clip-path="url(#clip3_361_34)">
<rect x="1495" y="63" width="390" height="844" fill="white"/>
<rect x="1496" y="64" width="388" height="73" fill="white"/>
<rect x="1496" y="64" width="388" height="73" stroke="black" stroke-width="2"/>
<path d="M1560.56 114V90.7273H1574.99V93.75H1564.07V100.841H1573.95V103.852H1564.07V114H1560.56ZM1579.03 114V96.5455H1582.43V114H1579.03ZM1580.75 93.8523C1580.16 93.8523 1579.65 93.6553 1579.23 93.2614C1578.81 92.8598 1578.6 92.3826 1578.6 91.8295C1578.6 91.2689 1578.81 90.7917 1579.23 90.3977C1579.65 89.9962 1580.16 89.7955 1580.75 89.7955C1581.34 89.7955 1581.84 89.9962 1582.26 90.3977C1582.69 90.7917 1582.9 91.2689 1582.9 91.8295C1582.9 92.3826 1582.69 92.8598 1582.26 93.2614C1581.84 93.6553 1581.34 93.8523 1580.75 93.8523ZM1590.4 103.636V114H1587V96.5455H1590.26V99.3864H1590.48C1590.88 98.4621 1591.51 97.7197 1592.37 97.1591C1593.23 96.5985 1594.32 96.3182 1595.63 96.3182C1596.82 96.3182 1597.86 96.5682 1598.75 97.0682C1599.65 97.5606 1600.34 98.2955 1600.83 99.2727C1601.32 100.25 1601.57 101.458 1601.57 102.898V114H1598.17V103.307C1598.17 102.042 1597.84 101.053 1597.18 100.341C1596.53 99.6212 1595.62 99.2614 1594.47 99.2614C1593.68 99.2614 1592.98 99.4318 1592.37 99.7727C1591.76 100.114 1591.28 100.614 1590.92 101.273C1590.57 101.924 1590.4 102.712 1590.4 103.636ZM1614.28 96.5455V99.2727H1604.74V96.5455H1614.28ZM1607.3 92.3636H1610.7V108.875C1610.7 109.534 1610.79 110.03 1610.99 110.364C1611.19 110.689 1611.44 110.913 1611.75 111.034C1612.07 111.148 1612.42 111.205 1612.79 111.205C1613.06 111.205 1613.3 111.186 1613.5 111.148C1613.71 111.11 1613.87 111.08 1613.98 111.057L1614.59 113.864C1614.4 113.939 1614.12 114.015 1613.75 114.091C1613.39 114.174 1612.93 114.22 1612.39 114.227C1611.5 114.242 1610.66 114.083 1609.89 113.75C1609.12 113.417 1608.49 112.902 1608.01 112.205C1607.54 111.508 1607.3 110.633 1607.3 109.58V92.3636ZM1629.09 106.761V96.5455H1632.5V114H1629.16V110.977H1628.98C1628.58 111.909 1627.93 112.686 1627.05 113.307C1626.17 113.92 1625.07 114.227 1623.76 114.227C1622.64 114.227 1621.65 113.981 1620.78 113.489C1619.93 112.989 1619.25 112.25 1618.76 111.273C1618.28 110.295 1618.03 109.087 1618.03 107.648V96.5455H1621.43V107.239C1621.43 108.428 1621.76 109.375 1622.42 110.08C1623.08 110.784 1623.94 111.136 1624.99 111.136C1625.63 111.136 1626.26 110.977 1626.89 110.659C1627.52 110.341 1628.05 109.86 1628.47 109.216C1628.89 108.572 1629.1 107.754 1629.09 106.761ZM1637.07 114V96.5455H1640.35V99.3182H1640.53C1640.85 98.3788 1641.41 97.6402 1642.21 97.1023C1643.02 96.5568 1643.94 96.2841 1644.96 96.2841C1645.18 96.2841 1645.43 96.2917 1645.71 96.3068C1646.01 96.322 1646.24 96.3409 1646.41 96.3636V99.6136C1646.27 99.5758 1646.03 99.5341 1645.68 99.4886C1645.33 99.4356 1644.98 99.4091 1644.63 99.4091C1643.83 99.4091 1643.11 99.5795 1642.49 99.9205C1641.86 100.254 1641.37 100.72 1641.01 101.318C1640.64 101.909 1640.46 102.583 1640.46 103.341V114H1637.07ZM1656.07 114.352C1654.44 114.352 1653.01 113.977 1651.79 113.227C1650.57 112.477 1649.62 111.428 1648.95 110.08C1648.27 108.731 1647.94 107.155 1647.94 105.352C1647.94 103.542 1648.27 101.958 1648.95 100.602C1649.62 99.2462 1650.57 98.1932 1651.79 97.4432C1653.01 96.6932 1654.44 96.3182 1656.07 96.3182C1657.71 96.3182 1659.14 96.6932 1660.36 97.4432C1661.58 98.1932 1662.52 99.2462 1663.2 100.602C1663.87 101.958 1664.21 103.542 1664.21 105.352C1664.21 107.155 1663.87 108.731 1663.2 110.08C1662.52 111.428 1661.58 112.477 1660.36 113.227C1659.14 113.977 1657.71 114.352 1656.07 114.352ZM1656.09 111.5C1657.15 111.5 1658.02 111.22 1658.72 110.659C1659.42 110.098 1659.93 109.352 1660.27 108.42C1660.61 107.489 1660.78 106.462 1660.78 105.341C1660.78 104.227 1660.61 103.205 1660.27 102.273C1659.93 101.333 1659.42 100.58 1658.72 100.011C1658.02 99.4432 1657.15 99.1591 1656.09 99.1591C1655.02 99.1591 1654.13 99.4432 1653.43 100.011C1652.73 100.58 1652.21 101.333 1651.87 102.273C1651.54 103.205 1651.37 104.227 1651.37 105.341C1651.37 106.462 1651.54 107.489 1651.87 108.42C1652.21 109.352 1652.73 110.098 1653.43 110.659C1654.13 111.22 1655.02 111.5 1656.09 111.5Z" fill="black"/>
<path d="M1526.76 114V90.7273H1542.65V95.2955H1532.39V100.068H1541.64V104.648H1532.39V114H1526.76Z" fill="black" fill-opacity="0.67"/>
<rect x="1823" y="87" width="38" height="3" fill="black"/>
<rect x="1823" y="98" width="38" height="3" fill="black"/>
<rect x="1823" y="109" width="38" height="3" fill="black"/>
<rect x="1496" y="833" width="388" height="73" fill="white"/>
<rect x="1496" y="833" width="388" height="73" stroke="black" stroke-width="2"/>
<rect width="55" height="40" transform="translate(1535 847)" fill="#949494" fill-opacity="0.3"/>
<rect width="55" height="40" transform="translate(1620 847)" fill="#B3B3B3"/>
<rect width="55" height="40" transform="translate(1705 847)" fill="#949494" fill-opacity="0.3"/>
<rect width="55" height="40" transform="translate(1790 847)" fill="#949494" fill-opacity="0.3"/>
<rect x="1573" y="215" width="233" height="37" fill="black"/>
<rect x="1573" y="263" width="233" height="62" fill="#D9D9D9"/>
<rect x="1573" y="377" width="97" height="35" fill="black"/>
<rect x="1573" y="377" width="97" height="35" fill="black"/>
<rect x="1573" y="377" width="97" height="35" fill="black"/>
<rect x="1648" y="702" width="97" height="18" fill="black"/>
<rect x="1648" y="702" width="97" height="18" fill="black"/>
<rect x="1648" y="702" width="97" height="18" fill="#83B277"/>
<rect x="1573" y="429" width="97" height="218" fill="#B3B3B3"/>
<rect x="1709" y="377" width="97" height="35" fill="black"/>
<rect x="1709" y="377" width="97" height="35" fill="black"/>
<rect x="1709" y="377" width="97" height="35" fill="#83B277"/>
<rect x="1709" y="429" width="97" height="218" fill="#B3B3B3"/>
</g>
<rect x="1496" y="64" width="388" height="842" stroke="black" stroke-width="2"/>
<defs>
<filter id="filter0_d_361_34" x="125" y="711" width="243" height="33" filterUnits="userSpaceOnUse" color-interpolation-filters="sRGB">
<feFlood flood-opacity="0" result="BackgroundImageFix"/>
<feColorMatrix in="SourceAlpha" type="matrix" values="0 0 0 0 0 0 0 0 0 0 0 0 0 0 0 0 0 0 127 0" result="hardAlpha"/>
<feOffset dy="4"/>
<feGaussianBlur stdDeviation="2"/>
<feComposite in2="hardAlpha" operator="out"/>
<feColorMatrix type="matrix" values="0 0 0 0 0 0 0 0 0 0 0 0 0 0 0 0 0 0 0.25 0"/>
<feBlend mode="normal" in2="BackgroundImageFix" result="effect1_dropShadow_361_34"/>
<feBlend mode="normal" in="SourceGraphic" in2="effect1_dropShadow_361_34" result="shape"/>
</filter>
<clipPath id="clip0_361_34">
<rect x="58" y="63" width="390" height="844" fill="white"/>
</clipPath>
<clipPath id="clip1_361_34">
<rect x="537" y="63" width="390" height="844" fill="white"/>
</clipPath>
<clipPath id="clip2_361_34">
<rect x="1016" y="63" width="390" height="844" fill="white"/>
</clipPath>
<clipPath id="clip3_361_34">
<rect x="1495" y="63" width="390" height="844" fill="white"/>
</clipPath>
</defs>
</svg>
