<svg width="4606" height="7345" viewBox="0 0 4606 7345" fill="none" xmlns="http://www.w3.org/2000/svg">
<path fill-rule="evenodd" clip-rule="evenodd" d="M1958.77 7099.19C2386.18 7221.44 2861.13 7131.56 3219.58 6828.32L3235.05 6815.24C3238.18 6812.59 3239.98 6808.71 3239.98 6804.61V4635.95C3239.98 4624.23 3226.35 4617.8 3217.3 4625.25L3201.28 4638.45C2845.67 4931.42 2379.05 5016.93 1958.77 4896.12V7099.19Z" fill="#B3B3B3"/>
<mask id="path-2-outside-1_0_1" maskUnits="userSpaceOnUse" x="1239" y="4428" width="2194" height="2917" fill="black">
<rect fill="white" x="1239" y="4428" width="2194" height="2917"/>
<path fill-rule="evenodd" clip-rule="evenodd" d="M1454.43 4625.26C1605.6 4753.58 1777.89 4843.79 1958.77 4895.78L1958.76 4896.12C2379.05 5016.93 2845.67 4931.42 3201.28 4638.45L3217.3 4625.25C3226.35 4617.8 3239.98 4624.23 3239.98 4635.95V6804.61C3239.98 6808.71 3238.18 6812.59 3235.05 6815.24L3219.58 6828.32C2861.13 7131.56 2386.18 7221.44 1958.76 7099.19L1958.77 7098.85C1770.92 7045.11 1592.25 6950.4 1436.69 6814.82C1433.71 6812.22 1432 6808.46 1432 6804.5V4635.64C1432 4624.04 1445.58 4617.75 1454.43 4625.26Z"/>
</mask>
<path d="M1958.77 4895.78L2151.72 4895.99L2151.88 4750.52L2012.07 4710.33L1958.77 4895.78ZM1454.43 4625.26L1329.56 4772.36L1329.56 4772.36L1454.43 4625.26ZM1958.76 4896.12L1765.81 4895.91L1765.65 5041.38L1905.46 5081.56L1958.76 4896.12ZM3201.28 4638.45L3078.59 4489.52L3078.59 4489.52L3201.28 4638.45ZM3217.3 4625.25L3339.99 4774.17L3340 4774.17L3217.3 4625.25ZM3235.05 6815.24L3110.43 6667.92L3110.43 6667.92L3235.05 6815.24ZM3219.58 6828.32L3094.96 6681.01L3094.96 6681.01L3219.58 6828.32ZM1958.76 7099.19L1765.81 7098.98L1765.65 7244.64L1905.7 7284.7L1958.76 7099.19ZM1958.77 7098.85L2151.72 7099.05L2151.88 6953.39L2011.83 6913.33L1958.77 7098.85ZM1436.69 6814.82L1563.48 6669.36L1563.47 6669.36L1436.69 6814.82ZM2012.07 4710.33C1856.97 4665.75 1709.19 4588.42 1579.3 4478.16L1329.56 4772.36C1502.01 4918.75 1698.81 5021.82 1905.46 5081.22L2012.07 4710.33ZM2151.72 4896.33L2151.72 4895.99L1765.81 4895.57L1765.81 4895.91L2151.72 4896.33ZM3078.59 4489.52C2773.49 4740.89 2373.07 4814.44 2012.07 4710.67L1905.46 5081.56C2385.03 5219.42 2917.86 5121.96 3323.98 4787.37L3078.59 4489.52ZM3094.61 4476.33L3078.59 4489.52L3323.98 4787.37L3339.99 4774.17L3094.61 4476.33ZM3432.94 4635.95C3432.94 4461.14 3229.52 4365.18 3094.61 4476.33L3340 4774.17C3223.17 4870.42 3047.03 4787.32 3047.03 4635.95H3432.94ZM3432.94 6804.61V4635.95H3047.03V6804.61H3432.94ZM3359.67 6962.55C3406.14 6923.24 3432.94 6865.47 3432.94 6804.61H3047.03C3047.03 6751.94 3070.22 6701.94 3110.43 6667.92L3359.67 6962.55ZM3344.2 6975.64L3359.67 6962.55L3110.43 6667.92L3094.96 6681.01L3344.2 6975.64ZM1905.7 7284.7C2393.07 7424.11 2935.08 7321.73 3344.2 6975.64L3094.96 6681.01C2787.17 6941.39 2379.28 7018.78 2011.83 6913.67L1905.7 7284.7ZM1765.81 7098.64L1765.81 7098.98L2151.72 7099.39L2151.72 7099.05L1765.81 7098.64ZM1309.91 6960.27C1487.25 7114.85 1691.21 7223.01 1905.7 7284.36L2011.83 6913.33C1850.62 6867.22 1697.25 6785.96 1563.48 6669.36L1309.91 6960.27ZM1239.05 6804.5C1239.05 6864.23 1264.89 6921.03 1309.91 6960.28L1563.47 6669.36C1602.54 6703.41 1624.95 6752.69 1624.95 6804.5H1239.05ZM1239.05 4635.64V6804.5H1624.95V4635.64H1239.05ZM1579.3 4478.16C1445.11 4364.25 1239.05 4459.62 1239.05 4635.64H1624.95C1624.95 4788.46 1446.06 4871.26 1329.56 4772.36L1579.3 4478.16Z" fill="#9A9A9A" mask="url(#path-2-outside-1_0_1)"/>
<path fill-rule="evenodd" clip-rule="evenodd" d="M1958.77 4895.78C1777.89 4843.79 1605.6 4753.58 1454.43 4625.26C1445.58 4617.75 1432 4624.04 1432 4635.64V6804.5C1432 6808.46 1433.71 6812.22 1436.69 6814.82C1592.25 6950.4 1770.92 7045.11 1958.77 7098.85V4895.78Z" fill="#D8D8D8"/>
<path d="M3401.6 3917.27C3340.68 4065.41 3311.56 4195.96 3287.43 4304.12L3285.35 4313.46C3260.01 4426.93 3240.91 4505.56 3202.61 4571.21C3133.63 4689.46 2980.93 4796.96 2448.67 4874.55C2356.89 4887.93 2263.76 4889.69 2173.75 4877.79C1748.94 4821.65 1572.51 4708.35 1469.52 4568.94C1415.13 4495.34 1376.37 4408.1 1336.54 4300.52C1324.44 4267.85 1312.03 4232.65 1298.97 4195.58C1270.6 4115.09 1239.15 4025.82 1201.02 3934.67C1135.33 3777.6 1064.58 3621.93 994.124 3466.93C854.225 3159.13 715.505 2853.92 619.918 2545.46C478.152 2087.97 442.516 1652.91 645.388 1244.28C824.908 882.695 1034.48 599.121 1299.72 405.618C1563.27 213.354 1889.11 104.633 2311.76 104.633C2751.61 104.633 3073.42 207.593 3327.9 396.881C3584.4 587.663 3782.52 873.509 3960.72 1257.54C4151.67 1669.05 4112.54 2098.23 3971.97 2547.51C3901.67 2772.22 3806.94 2998.94 3705.3 3228.31C3674.62 3297.55 3643.19 3367.3 3611.65 3437.27C3539.58 3597.18 3466.97 3758.29 3401.6 3917.27Z" fill="#46585F" stroke="#9D9B9C" stroke-width="209.265"/>
<mask id="path-6-outside-2_0_1" maskUnits="userSpaceOnUse" x="1381.81" y="3980.33" width="1940" height="1008" fill="black">
<rect fill="white" x="1381.81" y="3980.33" width="1940" height="1008"/>
<path fill-rule="evenodd" clip-rule="evenodd" d="M3162.61 4513.5C3021.97 4295 2743.05 4125.33 2423.07 4125.33C2084.74 4125.33 1725.15 4315.01 1557.81 4551.53C1561.61 4557.11 1565.48 4562.56 1569.44 4567.91C1649.32 4676.03 1794.02 4782.11 2205.39 4836.48C2285.2 4847.03 2368.9 4845.59 2452.38 4833.42C2983.32 4756.03 3090.38 4653.01 3133.35 4579.35C3144.56 4560.12 3153.89 4538.96 3162.61 4513.5Z"/>
</mask>
<path fill-rule="evenodd" clip-rule="evenodd" d="M3162.61 4513.5C3021.97 4295 2743.05 4125.33 2423.07 4125.33C2084.74 4125.33 1725.15 4315.01 1557.81 4551.53C1561.61 4557.11 1565.48 4562.56 1569.44 4567.91C1649.32 4676.03 1794.02 4782.11 2205.39 4836.48C2285.2 4847.03 2368.9 4845.59 2452.38 4833.42C2983.32 4756.03 3090.38 4653.01 3133.35 4579.35C3144.56 4560.12 3153.89 4538.96 3162.61 4513.5Z" fill="#6E7374"/>
<path d="M3162.61 4513.5L3299.07 4560.25L3321.71 4494.17L3283.9 4435.43L3162.61 4513.5ZM1557.81 4551.53L1440.06 4468.22L1382.22 4549.98L1438.61 4632.75L1557.81 4551.53ZM1569.44 4567.91L1453.42 4653.63L1453.42 4653.63L1569.44 4567.91ZM2205.39 4836.48L2186.49 4979.48L2186.49 4979.48L2205.39 4836.48ZM2452.38 4833.42L2473.19 4976.16L2473.19 4976.16L2452.38 4833.42ZM3133.35 4579.35L3257.94 4652.03L3257.94 4652.03L3133.35 4579.35ZM2423.07 4269.57C2693.64 4269.57 2927.03 4414.01 3041.32 4591.57L3283.9 4435.43C3116.91 4175.99 2792.46 3981.09 2423.07 3981.09V4269.57ZM1675.57 4634.84C1814.43 4438.56 2129 4269.57 2423.07 4269.57V3981.09C2040.47 3981.09 1635.87 4191.45 1440.06 4468.22L1675.57 4634.84ZM1438.61 4632.75C1443.42 4639.81 1448.35 4646.76 1453.42 4653.63L1685.45 4482.2C1682.61 4478.36 1679.81 4474.41 1677.02 4470.31L1438.61 4632.75ZM1453.42 4653.63C1566.1 4806.13 1755.78 4922.56 2186.49 4979.48L2224.29 4693.49C1832.25 4641.67 1732.54 4545.93 1685.45 4482.2L1453.42 4653.63ZM2186.49 4979.48C2280.79 4991.95 2377.91 4990.05 2473.19 4976.16L2431.58 4690.69C2359.88 4701.14 2289.62 4702.12 2224.29 4693.49L2186.49 4979.48ZM2473.19 4976.16C3006.02 4898.49 3177.98 4789.09 3257.94 4652.03L3008.75 4506.67C3002.77 4516.92 2960.62 4613.58 2431.58 4690.69L2473.19 4976.16ZM3257.94 4652.03C3275.02 4622.75 3288.02 4592.48 3299.07 4560.25L3026.16 4466.74C3019.75 4485.45 3014.1 4497.5 3008.75 4506.67L3257.94 4652.03Z" fill="#9C9B9B" mask="url(#path-6-outside-2_0_1)"/>
<rect x="2516.28" y="3454" width="154.895" height="1157.44" rx="77.4476" transform="rotate(7.95978 2516.28 3454)" fill="#9AABAC"/>
<rect x="1858" y="3491.14" width="154.895" height="1157.44" rx="77.4476" transform="rotate(-11.5966 1858 3491.14)" fill="#9AABAC"/>
<path d="M878.811 1839.75L883.698 1782.83C923.647 1317.47 1214.45 911.035 1641.99 723V723" stroke="#D9D5D7" stroke-width="200" stroke-linecap="round"/>
<path d="M1733.29 2424.26C1689.1 2424.26 1657.68 2417.87 1639.02 2405.11C1620.36 2391.36 1609.07 2374.17 1605.14 2353.55C1601.21 2331.95 1599.25 2310.34 1599.25 2288.74V1527.17C1599.25 1505.57 1601.21 1484.45 1605.14 1463.83C1609.07 1443.21 1620.36 1426.51 1639.02 1413.75C1657.68 1400 1689.59 1393.12 1734.77 1393.12C1779.94 1393.12 1811.36 1400 1829.04 1413.75C1847.7 1426.51 1858.99 1443.21 1862.92 1463.83C1866.85 1484.45 1868.81 1506.06 1868.81 1528.64V2290.21C1868.81 2311.81 1866.85 2332.93 1862.92 2353.55C1858.99 2374.17 1847.7 2391.36 1829.04 2405.11C1810.38 2417.87 1778.47 2424.26 1733.29 2424.26ZM2084.26 2422.78C2041.05 2422.78 2010.11 2416.4 1991.46 2403.63C1972.8 2390.87 1961.5 2374.17 1957.58 2353.55C1953.65 2332.93 1951.68 2310.83 1951.68 2287.26V1527.17C1951.68 1505.57 1953.65 1484.94 1957.58 1465.3C1961.5 1444.68 1972.8 1427.99 1991.46 1415.22C2010.11 1401.47 2042.03 1394.6 2087.2 1394.6C2117.65 1394.6 2139.74 1396.56 2153.49 1400.49C2168.22 1404.42 2178.53 1409.33 2184.42 1415.22C2191.3 1421.11 2198.17 1427.99 2205.05 1435.84L2509.97 1827.67H2501.13L2804.58 1437.32C2814.4 1426.51 2823.24 1418.17 2831.09 1412.27C2839.93 1406.38 2851.22 1401.96 2864.97 1399.02C2879.7 1396.07 2900.33 1394.6 2926.84 1394.6C2971.03 1394.6 3002.46 1401.47 3021.12 1415.22C3039.77 1427.99 3051.07 1444.68 3055 1465.3C3058.92 1485.93 3060.89 1507.53 3060.89 1530.12V2290.21C3060.89 2311.81 3058.92 2332.93 3055 2353.55C3051.07 2374.17 3039.77 2390.87 3021.12 2403.63C3002.46 2416.4 2970.54 2422.78 2925.37 2422.78C2881.18 2422.78 2849.75 2416.4 2831.09 2403.63C2812.43 2389.89 2801.14 2372.7 2797.21 2352.08C2793.28 2330.47 2791.32 2308.87 2791.32 2287.26V1868.92L2618.97 2103.13C2615.05 2108.04 2609.15 2115.41 2601.3 2125.23C2593.44 2135.05 2582.15 2143.89 2567.42 2151.74C2552.69 2159.6 2532.06 2163.53 2505.55 2163.53C2479.03 2163.53 2457.92 2159.6 2442.21 2151.74C2427.48 2143.89 2416.18 2135.54 2408.33 2126.7C2400.47 2116.88 2394.58 2109.03 2390.65 2103.13L2219.78 1870.39V2290.21C2219.78 2311.81 2217.81 2332.93 2213.89 2353.55C2209.96 2374.17 2198.66 2390.87 2180.01 2403.63C2161.35 2416.4 2129.43 2422.78 2084.26 2422.78Z" fill="#9AABAC"/>
<path d="M1765.7 3575.42C1721.51 3575.42 1690.08 3569.04 1671.42 3556.27C1652.77 3542.52 1641.47 3525.34 1637.54 3504.72C1633.62 3483.11 1631.65 3461.51 1631.65 3439.9V2678.34C1631.65 2656.73 1633.62 2635.62 1637.54 2614.99C1641.47 2594.37 1652.77 2577.68 1671.42 2564.91C1690.08 2551.16 1722 2544.29 1767.17 2544.29C1812.35 2544.29 1843.77 2551.16 1861.45 2564.91C1880.11 2577.68 1891.4 2594.37 1895.33 2614.99C1899.26 2635.62 1901.22 2657.22 1901.22 2679.81V3345.63H2260.64C2279.3 3345.63 2296.98 3347.1 2313.67 3350.05C2331.35 3352.99 2345.59 3362.81 2356.39 3379.51C2368.18 3395.22 2374.07 3422.22 2374.07 3460.52C2374.07 3497.84 2368.18 3524.85 2356.39 3541.54C2344.61 3557.25 2329.88 3566.58 2312.2 3569.53C2295.51 3573.46 2277.83 3575.42 2259.17 3575.42H1765.7ZM2582.26 3573.95C2538.07 3573.95 2506.65 3567.57 2487.99 3554.8C2469.33 3541.05 2458.04 3523.86 2454.11 3503.24C2450.18 3481.64 2448.22 3460.03 2448.22 3438.43V2678.34C2448.22 2656.73 2450.18 2635.62 2454.11 2614.99C2458.04 2594.37 2469.33 2577.68 2487.99 2564.91C2506.65 2551.16 2538.56 2544.29 2583.74 2544.29H2876.87C2914.19 2544.29 2954.45 2552.14 2997.66 2567.86C3040.87 2582.59 3081.63 2605.67 3119.92 2637.09C3159.21 2668.52 3191.12 2707.8 3215.67 2754.93C3240.22 2802.07 3252.5 2858.05 3252.5 2922.86C3252.5 2986.69 3240.22 3042.18 3215.67 3089.32C3191.12 3136.45 3159.21 3175.73 3119.92 3207.16C3081.63 3237.6 3040.87 3260.68 2997.66 3276.39C2954.45 3291.12 2913.7 3298.49 2875.4 3298.49H2717.78V3439.9C2717.78 3461.51 2715.82 3482.62 2711.89 3503.24C2707.96 3523.86 2696.67 3541.05 2678.01 3554.8C2659.35 3567.57 2627.44 3573.95 2582.26 3573.95ZM2717.78 3028.92H2876.87C2889.64 3028.92 2904.37 3025.97 2921.06 3020.08C2937.76 3013.21 2952.49 3001.92 2965.25 2986.2C2978.02 2970.49 2984.4 2948.89 2984.4 2921.39C2984.4 2900.77 2979.49 2882.6 2969.67 2866.89C2959.85 2850.19 2946.6 2837.42 2929.9 2828.59C2914.19 2818.77 2896.02 2813.86 2875.4 2813.86H2717.78V3028.92Z" fill="#9AABAC"/>
</svg>
