<svg width="4606" height="7332" viewBox="0 0 4606 7332" fill="none" xmlns="http://www.w3.org/2000/svg">
<path fill-rule="evenodd" clip-rule="evenodd" d="M1955.58 7087.2C2380.4 7208.71 2852.48 7119.37 3208.77 6817.97L3224.14 6804.97C3227.25 6802.34 3229.04 6798.47 3229.04 6794.4V4638.86C3229.04 4627.22 3215.49 4620.82 3206.5 4628.23L3190.58 4641.35C2837.12 4932.55 2373.32 5017.54 1955.58 4897.46V7087.2Z" fill="#B3B3B3"/>
<mask id="path-2-outside-1_377_16134" maskUnits="userSpaceOnUse" x="1240" y="4432" width="2181" height="2900" fill="black">
<rect fill="white" x="1240" y="4432" width="2181" height="2900"/>
<path fill-rule="evenodd" clip-rule="evenodd" d="M1454.29 4628.24C1604.55 4755.79 1775.8 4845.45 1955.58 4897.12L1955.58 4897.46C2373.32 5017.54 2837.12 4932.55 3190.58 4641.35L3206.5 4628.23C3215.49 4620.82 3229.04 4627.22 3229.04 4638.86V6794.4C3229.04 6798.47 3227.25 6802.34 3224.14 6804.97L3208.76 6817.97C2852.48 7119.37 2380.4 7208.71 1955.58 7087.2L1955.58 7086.86C1768.87 7033.45 1591.28 6939.31 1436.66 6804.55C1433.7 6801.97 1432 6798.23 1432 6794.3V4638.56C1432 4627.03 1445.5 4620.78 1454.29 4628.24Z"/>
</mask>
<path d="M1955.58 4897.12L2147.36 4897.33L2147.52 4752.74L2008.56 4712.8L1955.58 4897.12ZM1454.29 4628.24L1330.18 4774.45L1330.18 4774.45L1454.29 4628.24ZM1955.58 4897.46L1763.79 4897.25L1763.63 5041.84L1902.59 5081.78L1955.58 4897.46ZM3190.58 4641.35L3312.53 4789.37L3312.53 4789.37L3190.58 4641.35ZM3206.5 4628.23L3084.55 4480.21L3084.55 4480.21L3206.5 4628.23ZM3224.14 6804.97L3348.01 6951.39L3348.01 6951.38L3224.14 6804.97ZM3208.76 6817.97L3084.9 6671.55L3084.9 6671.55L3208.76 6817.97ZM1955.58 7087.2L1763.79 7086.99L1763.63 7231.77L1902.83 7271.59L1955.58 7087.2ZM1955.58 7086.86L2147.36 7087.07L2147.52 6942.28L2008.32 6902.47L1955.58 7086.86ZM1436.66 6804.55L1310.65 6949.13L1310.65 6949.13L1436.66 6804.55ZM2008.56 4712.8C1854.4 4668.49 1707.51 4591.62 1578.4 4482.03L1330.18 4774.45C1501.58 4919.96 1697.2 5022.4 1902.59 5081.45L2008.56 4712.8ZM2147.36 4897.67L2147.36 4897.33L1763.79 4896.91L1763.79 4897.25L2147.36 4897.67ZM3068.63 4493.32C2765.37 4743.17 2367.38 4816.28 2008.56 4713.14L1902.59 5081.78C2379.26 5218.8 2908.87 5121.93 3312.53 4789.37L3068.63 4493.32ZM3084.55 4480.21L3068.63 4493.32L3312.53 4789.37L3328.45 4776.25L3084.55 4480.21ZM3420.83 4638.86C3420.83 4465.12 3218.65 4369.73 3084.55 4480.21L3328.45 4776.25C3212.33 4871.92 3037.25 4789.32 3037.25 4638.86H3420.83ZM3420.83 6794.4V4638.86H3037.25V6794.4H3420.83ZM3348.01 6951.38C3394.19 6912.31 3420.83 6854.89 3420.83 6794.4H3037.25C3037.25 6742.05 3060.31 6692.36 3100.27 6658.55L3348.01 6951.38ZM3332.63 6964.4L3348.01 6951.39L3100.28 6658.54L3084.9 6671.55L3332.63 6964.4ZM1902.83 7271.59C2387.25 7410.15 2925.99 7308.4 3332.63 6964.4L3084.9 6671.55C2778.97 6930.35 2373.55 7007.28 2008.32 6902.8L1902.83 7271.59ZM1763.79 7086.65L1763.79 7086.99L2147.36 7087.4L2147.36 7087.07L1763.79 7086.65ZM1310.65 6949.13C1486.91 7102.76 1689.64 7210.27 1902.83 7271.25L2008.32 6902.47C1848.09 6856.63 1695.65 6775.87 1562.68 6659.97L1310.65 6949.13ZM1240.21 6794.3C1240.21 6853.66 1265.9 6910.12 1310.65 6949.13L1562.68 6659.97C1601.5 6693.81 1623.79 6742.8 1623.79 6794.3H1240.21ZM1240.21 4638.56V6794.3H1623.79V4638.56H1240.21ZM1578.4 4482.03C1445.03 4368.81 1240.21 4463.6 1240.21 4638.56H1623.79C1623.79 4790.45 1445.97 4872.75 1330.18 4774.45L1578.4 4482.03Z" fill="#0E0A04" mask="url(#path-2-outside-1_377_16134)"/>
<path fill-rule="evenodd" clip-rule="evenodd" d="M1955.58 4897.12C1775.8 4845.45 1604.55 4755.79 1454.29 4628.24C1445.5 4620.78 1432 4627.03 1432 4638.56V6794.3C1432 6798.23 1433.7 6801.97 1436.66 6804.55C1591.28 6939.31 1768.87 7033.45 1955.58 7086.86V4897.12Z" fill="#E9E9E9"/>
<path d="M3401.6 3917.27C3340.68 4065.41 3311.56 4195.96 3287.43 4304.12L3285.35 4313.46C3260.01 4426.93 3240.91 4505.56 3202.61 4571.21C3133.63 4689.46 2980.93 4796.96 2448.67 4874.55C2356.89 4887.93 2263.76 4889.69 2173.75 4877.79C1748.94 4821.65 1572.51 4708.35 1469.52 4568.94C1415.13 4495.34 1376.37 4408.1 1336.54 4300.52C1324.44 4267.85 1312.03 4232.65 1298.97 4195.58C1270.6 4115.09 1239.15 4025.82 1201.02 3934.67C1135.33 3777.6 1064.58 3621.93 994.124 3466.93C854.225 3159.13 715.505 2853.92 619.918 2545.46C478.152 2087.97 442.516 1652.91 645.388 1244.28C824.908 882.695 1034.48 599.121 1299.72 405.618C1563.27 213.354 1889.11 104.633 2311.76 104.633C2751.61 104.633 3073.42 207.593 3327.9 396.881C3584.4 587.663 3782.52 873.509 3960.72 1257.54C4151.67 1669.05 4112.54 2098.23 3971.97 2547.51C3901.67 2772.22 3806.94 2998.94 3705.3 3228.31C3674.62 3297.55 3643.19 3367.3 3611.65 3437.27C3539.58 3597.18 3466.97 3758.29 3401.6 3917.27Z" fill="#E1E6A5" stroke="#0D0704" stroke-width="209.265"/>
<mask id="path-6-outside-2_377_16134" maskUnits="userSpaceOnUse" x="1381.81" y="3980.33" width="1940" height="1008" fill="black">
<rect fill="white" x="1381.81" y="3980.33" width="1940" height="1008"/>
<path fill-rule="evenodd" clip-rule="evenodd" d="M3162.61 4513.5C3021.97 4295 2743.05 4125.33 2423.07 4125.33C2084.74 4125.33 1725.15 4315.01 1557.81 4551.53C1561.61 4557.11 1565.48 4562.56 1569.44 4567.91C1649.32 4676.03 1794.02 4782.11 2205.39 4836.48C2285.2 4847.03 2368.9 4845.59 2452.38 4833.42C2983.32 4756.03 3090.38 4653.01 3133.35 4579.35C3144.56 4560.12 3153.89 4538.96 3162.61 4513.5Z"/>
</mask>
<path fill-rule="evenodd" clip-rule="evenodd" d="M3162.61 4513.5C3021.97 4295 2743.05 4125.33 2423.07 4125.33C2084.74 4125.33 1725.15 4315.01 1557.81 4551.53C1561.61 4557.11 1565.48 4562.56 1569.44 4567.91C1649.32 4676.03 1794.02 4782.11 2205.39 4836.48C2285.2 4847.03 2368.9 4845.59 2452.38 4833.42C2983.32 4756.03 3090.38 4653.01 3133.35 4579.35C3144.56 4560.12 3153.89 4538.96 3162.61 4513.5Z" fill="#C4D6AC"/>
<path d="M3162.61 4513.5L3299.07 4560.25L3321.71 4494.17L3283.9 4435.43L3162.61 4513.5ZM1557.81 4551.53L1440.06 4468.22L1382.22 4549.98L1438.61 4632.75L1557.81 4551.53ZM1569.44 4567.91L1453.42 4653.63L1453.42 4653.63L1569.44 4567.91ZM2205.39 4836.48L2186.49 4979.48L2186.49 4979.48L2205.39 4836.48ZM2452.38 4833.42L2473.19 4976.16L2473.19 4976.16L2452.38 4833.42ZM3133.35 4579.35L3257.94 4652.03L3257.94 4652.03L3133.35 4579.35ZM2423.07 4269.57C2693.64 4269.57 2927.03 4414.01 3041.32 4591.57L3283.9 4435.43C3116.91 4175.99 2792.46 3981.09 2423.07 3981.09V4269.57ZM1675.57 4634.84C1814.43 4438.56 2129 4269.57 2423.07 4269.57V3981.09C2040.47 3981.09 1635.87 4191.45 1440.06 4468.22L1675.57 4634.84ZM1438.61 4632.75C1443.42 4639.81 1448.35 4646.76 1453.42 4653.63L1685.45 4482.2C1682.61 4478.36 1679.81 4474.41 1677.02 4470.31L1438.61 4632.75ZM1453.42 4653.63C1566.1 4806.13 1755.78 4922.56 2186.49 4979.48L2224.29 4693.49C1832.25 4641.67 1732.54 4545.93 1685.45 4482.2L1453.42 4653.63ZM2186.49 4979.48C2280.79 4991.95 2377.91 4990.05 2473.19 4976.16L2431.58 4690.69C2359.88 4701.14 2289.62 4702.12 2224.29 4693.49L2186.49 4979.48ZM2473.19 4976.16C3006.02 4898.49 3177.98 4789.09 3257.94 4652.03L3008.75 4506.67C3002.77 4516.92 2960.62 4613.58 2431.58 4690.69L2473.19 4976.16ZM3257.94 4652.03C3275.02 4622.75 3288.02 4592.48 3299.07 4560.25L3026.16 4466.74C3019.75 4485.45 3014.1 4497.5 3008.75 4506.67L3257.94 4652.03Z" fill="#76885F" mask="url(#path-6-outside-2_377_16134)"/>
<rect x="2516.28" y="3454" width="154.895" height="1157.44" rx="77.4476" transform="rotate(7.95978 2516.28 3454)" fill="#E9F9D1"/>
<rect x="1858" y="3491.14" width="154.895" height="1157.44" rx="77.4476" transform="rotate(-11.5966 1858 3491.14)" fill="#E9F9D1"/>
<path d="M878.811 1839.75L883.698 1782.83C923.647 1317.47 1214.45 911.035 1641.99 723V723" stroke="#F6F7ED" stroke-width="200" stroke-linecap="round"/>
<path d="M1733.29 2424.26C1689.1 2424.26 1657.68 2417.87 1639.02 2405.11C1620.36 2391.36 1609.07 2374.17 1605.14 2353.55C1601.21 2331.95 1599.25 2310.34 1599.25 2288.74V1527.17C1599.25 1505.57 1601.21 1484.45 1605.14 1463.83C1609.07 1443.21 1620.36 1426.51 1639.02 1413.75C1657.68 1400 1689.59 1393.12 1734.77 1393.12C1779.94 1393.12 1811.36 1400 1829.04 1413.75C1847.7 1426.51 1858.99 1443.21 1862.92 1463.83C1866.85 1484.45 1868.81 1506.06 1868.81 1528.64V2290.21C1868.81 2311.81 1866.85 2332.93 1862.92 2353.55C1858.99 2374.17 1847.7 2391.36 1829.04 2405.11C1810.38 2417.87 1778.47 2424.26 1733.29 2424.26ZM2084.26 2422.78C2041.05 2422.78 2010.11 2416.4 1991.46 2403.63C1972.8 2390.87 1961.5 2374.17 1957.58 2353.55C1953.65 2332.93 1951.68 2310.83 1951.68 2287.26V1527.17C1951.68 1505.57 1953.65 1484.94 1957.58 1465.3C1961.5 1444.68 1972.8 1427.99 1991.46 1415.22C2010.11 1401.47 2042.03 1394.6 2087.2 1394.6C2117.65 1394.6 2139.74 1396.56 2153.49 1400.49C2168.22 1404.42 2178.53 1409.33 2184.42 1415.22C2191.3 1421.11 2198.17 1427.99 2205.05 1435.84L2509.97 1827.67H2501.13L2804.58 1437.32C2814.4 1426.51 2823.24 1418.17 2831.09 1412.27C2839.93 1406.38 2851.22 1401.96 2864.97 1399.02C2879.7 1396.07 2900.33 1394.6 2926.84 1394.6C2971.03 1394.6 3002.46 1401.47 3021.12 1415.22C3039.77 1427.99 3051.07 1444.68 3055 1465.3C3058.92 1485.93 3060.89 1507.53 3060.89 1530.12V2290.21C3060.89 2311.81 3058.92 2332.93 3055 2353.55C3051.07 2374.17 3039.77 2390.87 3021.12 2403.63C3002.46 2416.4 2970.54 2422.78 2925.37 2422.78C2881.18 2422.78 2849.75 2416.4 2831.09 2403.63C2812.43 2389.89 2801.14 2372.7 2797.21 2352.08C2793.28 2330.47 2791.32 2308.87 2791.32 2287.26V1868.92L2618.97 2103.13C2615.05 2108.04 2609.15 2115.41 2601.3 2125.23C2593.44 2135.05 2582.15 2143.89 2567.42 2151.74C2552.69 2159.6 2532.06 2163.53 2505.55 2163.53C2479.03 2163.53 2457.92 2159.6 2442.21 2151.74C2427.48 2143.89 2416.18 2135.54 2408.33 2126.7C2400.47 2116.88 2394.58 2109.03 2390.65 2103.13L2219.78 1870.39V2290.21C2219.78 2311.81 2217.81 2332.93 2213.89 2353.55C2209.96 2374.17 2198.66 2390.87 2180.01 2403.63C2161.35 2416.4 2129.43 2422.78 2084.26 2422.78Z" fill="#E9F9D1"/>
<path d="M1765.7 3575.42C1721.51 3575.42 1690.08 3569.04 1671.42 3556.27C1652.77 3542.52 1641.47 3525.34 1637.54 3504.72C1633.62 3483.11 1631.65 3461.51 1631.65 3439.9V2678.34C1631.65 2656.73 1633.62 2635.62 1637.54 2614.99C1641.47 2594.37 1652.77 2577.68 1671.42 2564.91C1690.08 2551.16 1722 2544.29 1767.17 2544.29C1812.35 2544.29 1843.77 2551.16 1861.45 2564.91C1880.11 2577.68 1891.4 2594.37 1895.33 2614.99C1899.26 2635.62 1901.22 2657.22 1901.22 2679.81V3345.63H2260.64C2279.3 3345.63 2296.98 3347.1 2313.67 3350.05C2331.35 3352.99 2345.59 3362.81 2356.39 3379.51C2368.18 3395.22 2374.07 3422.22 2374.07 3460.52C2374.07 3497.84 2368.18 3524.85 2356.39 3541.54C2344.61 3557.25 2329.88 3566.58 2312.2 3569.53C2295.51 3573.46 2277.83 3575.42 2259.17 3575.42H1765.7ZM2582.26 3573.95C2538.07 3573.95 2506.65 3567.57 2487.99 3554.8C2469.33 3541.05 2458.04 3523.86 2454.11 3503.24C2450.18 3481.64 2448.22 3460.03 2448.22 3438.43V2678.34C2448.22 2656.73 2450.18 2635.62 2454.11 2614.99C2458.04 2594.37 2469.33 2577.68 2487.99 2564.91C2506.65 2551.16 2538.56 2544.29 2583.74 2544.29H2876.87C2914.19 2544.29 2954.45 2552.14 2997.66 2567.86C3040.87 2582.59 3081.63 2605.67 3119.92 2637.09C3159.21 2668.52 3191.12 2707.8 3215.67 2754.93C3240.22 2802.07 3252.5 2858.05 3252.5 2922.86C3252.5 2986.69 3240.22 3042.18 3215.67 3089.32C3191.12 3136.45 3159.21 3175.73 3119.92 3207.16C3081.63 3237.6 3040.87 3260.68 2997.66 3276.39C2954.45 3291.12 2913.7 3298.49 2875.4 3298.49H2717.78V3439.9C2717.78 3461.51 2715.82 3482.62 2711.89 3503.24C2707.96 3523.86 2696.67 3541.05 2678.01 3554.8C2659.35 3567.57 2627.44 3573.95 2582.26 3573.95ZM2717.78 3028.92H2876.87C2889.64 3028.92 2904.37 3025.97 2921.06 3020.08C2937.76 3013.21 2952.49 3001.92 2965.25 2986.2C2978.02 2970.49 2984.4 2948.89 2984.4 2921.39C2984.4 2900.77 2979.49 2882.6 2969.67 2866.89C2959.85 2850.19 2946.6 2837.42 2929.9 2828.59C2914.19 2818.77 2896.02 2813.86 2875.4 2813.86H2717.78V3028.92Z" fill="#E9F9D1"/>
<path d="M3401.6 3917.27C3340.68 4065.41 3311.56 4195.96 3287.43 4304.12L3285.35 4313.46C3260.01 4426.93 3240.91 4505.56 3202.61 4571.21C3133.63 4689.46 2980.93 4796.96 2448.67 4874.55C2356.89 4887.93 2263.76 4889.69 2173.75 4877.79C1748.94 4821.65 1572.51 4708.35 1469.52 4568.94C1415.13 4495.34 1376.37 4408.1 1336.54 4300.52C1324.44 4267.85 1312.03 4232.65 1298.97 4195.58C1270.6 4115.09 1239.15 4025.82 1201.02 3934.67C1135.33 3777.6 1064.58 3621.93 994.124 3466.93C854.225 3159.13 715.505 2853.92 619.918 2545.46C478.152 2087.97 442.516 1652.91 645.388 1244.28C824.908 882.695 1034.48 599.121 1299.72 405.618C1563.27 213.354 1889.11 104.633 2311.76 104.633C2751.61 104.633 3073.42 207.593 3327.9 396.881C3584.4 587.663 3782.52 873.509 3960.72 1257.54C4151.67 1669.05 4112.54 2098.23 3971.97 2547.51C3901.67 2772.22 3806.94 2998.94 3705.3 3228.31C3674.62 3297.55 3643.19 3367.3 3611.65 3437.27C3539.58 3597.18 3466.97 3758.29 3401.6 3917.27Z" stroke="#0D0704" stroke-width="209.265"/>
</svg>
