<svg width="82" height="98" viewBox="0 0 82 98" fill="none" xmlns="http://www.w3.org/2000/svg">
<path d="M3.49988 74.9999L0.499877 74.9998L0.499874 77.9999L3.49988 77.9999L3.49988 74.9999ZM80.6213 77.1211C81.7928 75.9496 81.7928 74.0501 80.6213 72.8785L61.5294 53.7866C60.3578 52.6151 58.4583 52.6151 57.2867 53.7866C56.1152 54.9582 56.1152 56.8577 57.2867 58.0293L74.2573 74.9998L57.2868 91.9704C56.1152 93.142 56.1152 95.0415 57.2868 96.213C58.4583 97.3846 60.3578 97.3846 61.5294 96.213L80.6213 77.1211ZM0.499972 0.499997L0.499877 74.9998L6.49988 74.9999L6.49997 0.500005L0.499972 0.499997ZM3.49988 77.9999L78.4999 77.9998L78.4999 71.9998L3.49988 71.9999L3.49988 77.9999Z" fill="white"/>
</svg>
