<svg width="77" height="96" viewBox="0 0 77 96" fill="none" xmlns="http://www.w3.org/2000/svg">
<path d="M74 73L74 76L77 76L77 73H74ZM0.878676 70.8787C-0.292897 72.0503 -0.292897 73.9497 0.878676 75.1213L19.9706 94.2132C21.1421 95.3848 23.0416 95.3848 24.2132 94.2132C25.3848 93.0416 25.3848 91.1421 24.2132 89.9706L7.24264 73L24.2132 56.0294C25.3848 54.8579 25.3848 52.9584 24.2132 51.7868C23.0416 50.6152 21.1421 50.6152 19.9706 51.7868L0.878676 70.8787ZM71 -9.84441e-07V73H77V-9.84441e-07H71ZM74 70L3 70L3 76L74 76L74 70Z" fill="white"/>
</svg>
