<svg width="2984" height="3489" viewBox="0 0 2984 3489" fill="none" xmlns="http://www.w3.org/2000/svg">
<path d="M451.151 599.977C451.151 745.682 449.481 892.215 468.367 1037.01C484.292 1159.1 532.378 1260.83 570.342 1374.72" stroke="#F8E750" stroke-width="50" stroke-linecap="round"/>
<path d="M975.593 504.625C975.593 623.922 965.591 748.843 990.822 866.17C1021.37 1008.21 1111.51 1091.3 1213.97 1184.01" stroke="#F8E750" stroke-width="50" stroke-linecap="round"/>
<path d="M129.258 681.928C147.03 681.928 162.367 680.564 179.658 674.918C261.41 648.224 347.533 625.257 424.981 587.47C484.876 558.247 544.549 528.092 603.049 496.183C633.155 479.761 668.532 453.366 703.014 447.619" stroke="#F8E750" stroke-width="50" stroke-linecap="round"/>
<path d="M348.547 1462.96C454.004 1438.62 563.099 1389.52 649.944 1324.94C716.304 1275.6 776.555 1217.28 841.196 1165.56" stroke="#F8E750" stroke-width="50" stroke-linecap="round"/>
<path d="M976.375 480.662C980.888 513.754 1014.44 550.366 1033.95 574.786C1058.57 605.605 1086.2 635.061 1119.9 656.227C1172.08 689.008 1233 700.929 1293.46 706.293C1302.49 707.094 1410.7 719.268 1414.79 704.958C1428.12 658.3 1438.99 611.441 1453.84 564.94C1474.74 499.481 1497.07 434.474 1516.92 368.681C1521.15 354.663 1524.26 345.774 1521.76 331.799C1519.28 317.934 1506.93 277.507 1511.75 290.745C1514.14 297.332 1522.54 304.908 1526.77 309.436C1570.39 356.115 1615.15 401.567 1654.27 452.291C1740.22 563.743 1810.77 688.056 1859.87 820.109C1888.77 897.814 1894.91 970.365 1901.59 1051.41" stroke="#F8E750" stroke-width="50" stroke-linecap="round"/>
<path d="M473.574 1584.45C540.098 1584.45 600.429 1671.31 636.62 1714.44C717.299 1810.58 791.819 1940.03 897.941 2012.39C914.041 2023.37 951.346 2035.46 969.413 2032.94C1090.68 2016.01 1221.38 1892.52 1312.48 1822.99C1421.82 1739.53 1526.68 1649.47 1631.43 1560.33" stroke="#F8E750" stroke-width="50" stroke-linecap="round"/>
<path d="M1181.15 1560.33C1232.1 1480.27 1342.69 1420.67 1423.71 1377.63C1555.81 1307.45 1705.39 1277.63 1852.1 1256.57C1932.97 1244.96 2028.76 1226.24 2109.85 1243.61C2183.61 1259.42 2128.88 1456.2 2116.99 1496.89C2071.92 1651.23 1956.21 1734.06 1848.97 1841.3C1833.32 1856.95 1829.52 1858.8 1845.84 1873.02C1969.02 1980.3 2084.03 2099.39 2194.27 2219.66" stroke="#F8E750" stroke-width="50" stroke-linecap="round"/>
<path d="M2186.23 2267.9C2186.23 2269.58 2203.37 2231.72 2212.14 2219.66C2229.79 2195.39 2192.11 2233.22 2188.91 2235.74C2110.24 2297.77 2032.29 2360.82 1968.24 2438.54C1917.97 2499.54 1878.55 2562.48 1869.52 2641.79C1865.91 2673.52 1853.47 2737.03 1898.55 2746.77C1975.72 2763.43 2075.92 2712.35 2139.33 2677.08C2249.37 2615.87 2358.99 2537.61 2453.36 2453.73C2470.82 2438.21 2481.21 2428.28 2496.24 2411.74C2502.02 2405.38 2518.78 2392.72 2510.54 2390.3C2480.12 2381.35 2399.71 2444.6 2378.76 2460.43C2298.55 2521.05 2238.92 2608.64 2207.67 2703.88C2188.31 2762.9 2151.05 2894.09 2204.1 2948.68C2246.5 2992.3 2355.69 2927.07 2392.16 2905.79C2468.82 2861.08 2518.61 2796.42 2566.82 2723.54C2592.12 2685.3 2613.42 2630.97 2647.67 2599.35C2650.44 2596.81 2659.05 2589.91 2657.05 2593.1C2648.71 2606.45 2635.66 2620.41 2626.23 2632.41C2482.25 2815.66 2338.48 2998.24 2293.44 3233.67C2283.25 3286.96 2264.66 3390.53 2299.69 3439.15C2338.98 3493.69 2445.29 3440.84 2485.97 3419.95C2672.93 3323.94 2771.5 3159.87 2902.74 3004.96C2911.1 2995.09 2957.45 2960.3 2958.13 2943.31C2960.51 2883.78 2907.68 2801.23 2882.19 2752.13C2793.21 2580.71 2649.77 2487.9 2496.24 2378.68C2442.57 2340.51 2375.14 2282.31 2351.51 2217.87C2324.54 2144.31 2333.47 2032.28 2343.92 1955.66C2369.66 1766.91 2363.62 1578.38 2363.12 1387.01C2362.52 1153.97 2357.94 933.829 2278.25 712.486C2229.83 577.992 2190.72 475.12 2070.09 387.287C1914.19 273.774 1720.29 195.213 1536.73 139.814C1360.45 86.612 1180.82 28.9039 994.877 25.9048C558.739 18.8703 182.584 297.013 60.8233 716.059C-4.6855 941.512 22.073 1196.81 122.468 1407.55C175.919 1519.76 253.033 1622.25 324.377 1723.37C403.241 1835.15 480.802 1946.29 599.099 2019.09C765.624 2121.57 962.587 2187.61 1149.44 2244.23C1290.86 2287.08 1438.37 2304.9 1581.4 2341.16C1626.52 2352.6 1683.7 2364.14 1714.51 2402.81C1735.06 2428.59 1741.7 2467.83 1752.93 2497.95C1771.28 2547.17 1798.34 2591.11 1835.12 2628.84C1859.74 2654.08 1889.28 2668.73 1911.96 2696.74C1970.95 2769.61 1990.95 2854.52 2033.46 2935.27C2055.46 2977.08 2091.5 3009.24 2121.91 3044.72C2170.57 3101.49 2206.91 3164.58 2246.09 3227.86C2280.08 3282.78 2302.94 3349.79 2355.98 3389.57C2400.47 3422.94 2446.43 3439.2 2499.82 3449.88" stroke="#F8E750" stroke-width="50" stroke-linecap="round"/>
</svg>
