<svg width="202" height="84" viewBox="0 0 202 84" fill="none" xmlns="http://www.w3.org/2000/svg">
<path d="M142 2.64348L181.927 0L200.018 13.2174L201.266 37.6696L193.5 46.5L176.5 53V71V76L147.615 75.3391L142 2.64348Z" fill="black"/>
<path d="M147 6L179 4L193.5 14L194.5 32.5L187 41.5L168 48.5L169.5 61.5L151.5 61L147 6Z" fill="#FBD000"/>
<path d="M167 20.5L174.5 25.5L170.5 31L167 30.5V20.5Z" fill="black"/>
<path d="M44.5 1L96.5 6L117 82L84 84L76 60L64 70.5L55 60L44.5 83L6 74L44.5 1Z" fill="black"/>
<path d="M46.5 9L64 11L68 23L77.5 9.5H92L108 64.5L87 66.5L78.5 40L64 51.5L53.5 39L40 64.5L18.5 60.5L46.5 9Z" fill="#049CD8"/>
<path d="M0 5L27 3L44.5 79.5L3 82.5L0 5Z" fill="black"/>
<path d="M6 10.05L23.5 9L34 62.55L8.1 64.3L6 10.05Z" fill="#E52521"/>
<path d="M103 1L135 5V37.5L154.5 35L161.5 75L104 80L103 1Z" fill="black"/>
<path d="M108.1 6L128 7.5V41.5L149.5 39.5L152.5 57L109.5 63L108.1 6Z" fill="#43B047"/>
</svg>
