<svg width="453" height="146" viewBox="0 0 453 146" fill="none" xmlns="http://www.w3.org/2000/svg">
<path d="M55 3.5L82 1.5L99.5 78L58 81L55 3.5Z" fill="black"/>
<path d="M61 8.55L78.5 7.5L89 61.05L63.1 62.8L61 8.55Z" fill="#049CD8"/>
<path d="M208 4.5L233 3L248 79.5L211 82L208 4.5Z" fill="black"/>
<path d="M214 9.55L231.5 8.5L242 62.05L216.1 63.8L214 9.55Z" fill="#43B047"/>
<path d="M250 2.5L269.5 3L272 7L274 2.5L301.5 6L298 68.5L263.5 69.5H238L250 2.5Z" fill="black"/>
<path d="M255 7.5H266.5L277 24V7.5L296 10L292 63.5H277L266.5 47.5L263.5 64H245L255 7.5Z" fill="#FBD000"/>
<path d="M301 15L318.5 2.5L343 4.5L355.5 21.5V69.5L303.5 73.5L293.5 43.5L301 15Z" fill="black"/>
<path d="M303.5 19L319.5 7L340 8.5L348 20L335 27L329.5 24L322 26L317.5 37.5L322 46.5L335 45.5V43.5L325.5 44.5L326 29H349L349.5 59.5L311.5 64.5L299.5 41L303.5 19Z" fill="#E52521"/>
<path d="M258 68.5L294 63.5L313.5 81L318 123.5L313.5 130L296.5 142.5H258V123.5V68.5Z" fill="black"/>
<path d="M263 72L292 69L306.5 82L310.5 113.5L294.5 125L272 126L263 106V72Z" fill="#049CD8"/>
<path d="M281 89.5L290 94V101.5L281 104.5V89.5Z" fill="black"/>
<path d="M393 67L429 62L448.5 79.5L453 122L448.5 128.5L431.5 141H393V122V67Z" fill="black"/>
<path d="M398 70.5L427 67.5L441.5 80.5L445.5 112L429.5 123.5L407 124.5L397 125L398 104.5V70.5Z" fill="#43B047"/>
<path d="M416 90L425 94.5V102L416 105V90Z" fill="black"/>
<path d="M140 3L169.5 4.5L175.5 25L182 4.5L215 3L210.5 28L194 72.5L152.5 69L148 51L140 3Z" fill="black"/>
<path d="M146 8L166.5 9.24101L175 42L185 9.24101L208.05 8L186.5 65L159.5 64L146 8Z" fill="#E52521"/>
<path d="M0 64L32 68V100.5L51.5 98L58.5 138L1 143L0 64Z" fill="black"/>
<path d="M5.10001 69L25 70.5V104.5L46.5 102.5L49.5 120L6.5 126L5.10001 69Z" fill="#43B047"/>
<path d="M87 2.76283L125.833 0.191772L143.429 13.047L144.642 36.8293V43.9589L158 56.1164L129.795 78L120.555 69.2466V74.1096L92.4609 73.4668L87 2.76283Z" fill="black"/>
<path d="M91.863 6.02742L122.986 4.08221L137.089 13.8082L138.062 31.8014L130.767 40.5548L144.87 52.7124L128.336 60.0069L112.288 47.363L113.747 60.0069L96.2397 59.5206L91.863 6.02742Z" fill="#FBD000"/>
<path d="M111.315 20.1301L118.61 24.9931L114.719 30.3425L111.315 29.8562V20.1301Z" fill="black"/>
<path d="M363 64.5L388 63L403 139.5L366 142L363 64.5Z" fill="black"/>
<path d="M369 69.55L386.5 68.5L397 122.05L371.1 123.8L369 69.55Z" fill="#049CD8"/>
<path d="M306 68.6435L345.927 66L364.018 79.2174L365.266 103.67V111L379 123.5L350 146L340.5 137V142L311.615 141.339L306 68.6435Z" fill="black"/>
<path d="M311 72L343 70L357.5 80L358.5 98.5L351 107.5L365.5 120L348.5 127.5L332 114.5L333.5 127.5L315.5 127L311 72Z" fill="#FBD000"/>
<path d="M331 86.5L338.5 91.5L334.5 97L331 96.5V86.5Z" fill="black"/>
<path d="M217.5 72H247.5L276.5 137.5L237 144.5L233.5 129.5H225L220.5 143.5L182 134.5L217.5 72Z" fill="black"/>
<path d="M221 71.5H241L264 121L241 126L239 112L221 111L217 126L192.5 123L221 71.5Z" fill="#43B047"/>
<path d="M229.5 89.5H234.245L236.5 96.5H226L229.5 89.5Z" fill="black"/>
<path d="M135.5 62L187.5 67L208 143L175 145L167 121L155 131.5L146 121L135.5 144L97 135L135.5 62Z" fill="black"/>
<path d="M137.5 70L155 72L159 84L168.5 70.5H183L199 125.5L178 127.5L169.5 101L155 112.5L144.5 100L131 125.5L109.5 121.5L137.5 70Z" fill="#049CD8"/>
<path d="M64.5 70H94.5L123.5 135.5L84 142.5L80.5 127.5H72L67.5 141.5L29 132.5L64.5 70Z" fill="black"/>
<path d="M71 67H90L111 119L88 124L86 110L68 109L64 124L39.5 121L71 67Z" fill="#FBD000"/>
<path d="M76.5 87.5H81.2448L83.5 94.5H73L76.5 87.5Z" fill="black"/>
</svg>
