<svg width="226" height="473" viewBox="0 0 226 473" fill="none" xmlns="http://www.w3.org/2000/svg">
<path d="M0 0H186C208.091 0 226 17.9086 226 40V110H0V0Z" fill="#448DC1"/>
<path d="M0 0H122C144.091 0 162 17.9086 162 40V110H0V0Z" fill="#121826"/>
<path d="M226 121H40C17.9086 121 0 138.909 0 161V231H226V121Z" fill="white"/>
<path d="M226 121H104C81.9086 121 64 138.909 64 161V231H226V121Z" fill="#121826"/>
<path d="M226 363H40C17.9086 363 0 380.909 0 403V473H226V363Z" fill="white"/>
<path d="M226 363H104C81.9086 363 64 380.909 64 403V473H226V363Z" fill="#121826"/>
<path d="M0 242H186C208.091 242 226 259.909 226 282V352H0V242Z" fill="#448DC1"/>
<path d="M0 242H122C144.091 242 162 259.909 162 282V352H0V242Z" fill="#121826"/>
</svg>
